<?xml version="1.0" encoding="UTF-8" standalone="no"?>
<!DOCTYPE svg PUBLIC "-//W3C//DTD SVG 1.1//EN" "http://www.w3.org/Graphics/SVG/1.1/DTD/svg11.dtd">
<!-- Generated by Microsoft Visio, SVG Export web-api-overview.svg Page-1 -->
<svg xmlns="http://www.w3.org/2000/svg" xmlns:xlink="http://www.w3.org/1999/xlink" xmlns:ev="http://www.w3.org/2001/xml-events"
		xmlns:v="http://schemas.microsoft.com/visio/2003/SVGExtensions/" width="9.61324in" height="7.05419in"
		viewBox="0 0 692.154 507.902" xml:space="preserve" color-interpolation-filters="sRGB" class="st52">
	<v:documentProperties v:langID="1033" v:metric="true" v:viewMarkup="false"/>

	<style type="text/css">
	<![CDATA[
		.st1 {fill:#8ac648;stroke:#c7c8c8;stroke-width:0.25}
		.st2 {fill:#feffff;font-family:Calibri;font-size:1.99999em}
		.st3 {font-size:1em}
		.st4 {font-size:0.58333em}
		.st5 {fill:#ed028c;stroke:#c7c8c8;stroke-width:0.25}
		.st6 {fill:#5ebeff;stroke:#c7c8c8;stroke-width:0.25}
		.st7 {fill:#800127;stroke:#c7c8c8;stroke-width:0.25}
		.st8 {fill:#feffff;font-family:Calibri;font-size:1.16666em}
		.st9 {font-size:1.71429em}
		.st10 {fill:#ff00ff;fill-opacity:0;stroke:#c7c8c8;stroke-opacity:0;stroke-width:0.72}
		.st11 {fill:url(#grad0-45);stroke:#ffffff;stroke-width:0.72}
		.st12 {fill:url(#grad12-49);stroke:#ffffff;stroke-width:0.72}
		.st13 {fill:url(#grad11-58);stroke:#000000;stroke-width:0.72}
		.st14 {stroke:#c8c8c8;stroke-width:1.5}
		.st15 {stroke:#ffffff;stroke-width:0.72}
		.st16 {fill:#ffffff;stroke:none;stroke-width:0.24}
		.st17 {fill:#969696;stroke:none;stroke-width:0.24}
		.st18 {fill:url(#grad10-88)}
		.st19 {stroke:#000000;stroke-width:0.72}
		.st20 {fill:#ff00ff;fill-opacity:0}
		.st21 {stroke:#c7c8c8;stroke-opacity:0;stroke-width:0.72}
		.st22 {fill:url(#grad7-103);stroke:none;stroke-width:0.72}
		.st23 {fill:url(#grad0-107);stroke:none;stroke-width:0.72}
		.st24 {fill:url(#grad3-118);stroke:#c7c8c8;stroke-width:0.12}
		.st25 {fill:url(#grad10-88);stroke:#000000;stroke-width:0.72}
		.st26 {fill:#000000;fill-opacity:0;stroke:none;stroke-linecap:butt;stroke-width:0.75}
		.st27 {fill:url(#grad0-190);stroke:none;stroke-linecap:round;stroke-linejoin:round;stroke-width:0.75}
		.st28 {fill:url(#grad0-194);stroke:none;stroke-linecap:round;stroke-linejoin:round;stroke-width:0.75}
		.st29 {fill:url(#grad10-198);stroke:#2b62bd;stroke-linecap:butt;stroke-width:0.130208}
		.st30 {fill:url(#grad7-206);stroke:none;stroke-linecap:round;stroke-linejoin:round;stroke-width:0.75}
		.st31 {fill:url(#grad3-216);stroke:#000000;stroke-linecap:butt;stroke-width:0.130208}
		.st32 {fill:url(#grad1-223);stroke:none;stroke-linecap:round;stroke-linejoin:round;stroke-width:0.75}
		.st33 {fill:url(#grad3-236);stroke:none;stroke-linecap:round;stroke-linejoin:round;stroke-width:0.75}
		.st34 {fill:none}
		.st35 {stroke:#2b62bd;stroke-linecap:butt;stroke-width:0.130208}
		.st36 {stroke:#ffffff;stroke-linecap:butt;stroke-width:0.130208}
		.st37 {fill:url(#grad0-264);stroke:none;stroke-linecap:round;stroke-linejoin:round;stroke-width:0.75}
		.st38 {fill:url(#grad7-277);stroke:none;stroke-linecap:round;stroke-linejoin:round;stroke-width:0.75}
		.st39 {fill:none;stroke:#c8c8c8;stroke-width:0.75}
		.st40 {fill:url(#grad3-294);stroke:#383872;stroke-linecap:round;stroke-linejoin:round;stroke-width:0.125}
		.st41 {stroke:#383872;stroke-linecap:round;stroke-linejoin:round;stroke-width:0.125}
		.st42 {fill:none;visibility:hidden}
		.st43 {stroke:#c8c8c8;stroke-width:0.75}
		.st44 {fill:url(#grad3-298)}
		.st45 {stroke:#383872;stroke-linecap:round;stroke-linejoin:round;stroke-width:0.25}
		.st46 {fill:url(#grad3-298);stroke:#383872;stroke-linecap:round;stroke-linejoin:round;stroke-width:0.125}
		.st47 {marker-end:url(#mrkr5-422);stroke:#5ebeff;stroke-linecap:round;stroke-linejoin:round;stroke-width:6}
		.st48 {fill:#5ebeff;fill-opacity:1;stroke:#5ebeff;stroke-opacity:1;stroke-width:0.70422535211268}
		.st49 {fill:#ffffff;stroke:none;stroke-linecap:butt;stroke-width:7.2}
		.st50 {fill:#3c63ac;font-family:Calibri;font-size:1.99999em}
		.st51 {stroke:#5ebeff;stroke-linecap:round;stroke-linejoin:round;stroke-width:6}
		.st52 {fill:none;fill-rule:evenodd;font-size:12px;overflow:visible;stroke-linecap:square;stroke-miterlimit:3}
	]]>
	</style>

	<defs id="Patterns_And_Gradients">
		<linearGradient id="grad0-45" x1="0" y1="0" x2="1" y2="0" gradientTransform="rotate(270 0.5 0.5)">
			<stop offset="0" stop-color="#668ace" stop-opacity="1"/>
			<stop offset="1" stop-color="#626262" stop-opacity="1"/>
		</linearGradient>
		<pattern id="grad12-49" x="0" y="0" width="1" height="1" patternContentUnits="objectBoundingBox">
			<path d="M 0 0 L 0 1 L 1 1 z" style="fill:url(#grad0-50)"/>
			<path d="M 0 0 L 1 0 L 1 1 z" style="fill:url(#grad0-51)"/>
		</pattern>
		<linearGradient id="grad0-50" x1="0" y1="0" x2="1" y2="0" gradientTransform="rotate(90 0.5 0.5)">
			<stop offset="0" stop-color="#365fa9" stop-opacity="1"/>
			<stop offset="1" stop-color="#3e3e3e" stop-opacity="1"/>
		</linearGradient>
		<linearGradient id="grad0-51" x1="0" y1="0" x2="1" y2="0" gradientTransform="rotate(360 0.5 0.5)">
			<stop offset="0" stop-color="#365fa9" stop-opacity="1"/>
			<stop offset="1" stop-color="#3e3e3e" stop-opacity="1"/>
		</linearGradient>
		<pattern id="grad11-58" x="0" y="0" width="1" height="1" patternContentUnits="objectBoundingBox">
			<path d="M 0 1 L 0 0 L 1 0 z" style="fill:url(#grad0-59)"/>
			<path d="M 0 1 L 1 1 L 1 0 z" style="fill:url(#grad0-60)"/>
		</pattern>
		<linearGradient id="grad0-59" x1="0" y1="0" x2="1" y2="0" gradientTransform="rotate(180 0.5 0.5)">
			<stop offset="0" stop-color="#ffffff" stop-opacity="1"/>
			<stop offset="1" stop-color="#c0c0c0" stop-opacity="1"/>
		</linearGradient>
		<linearGradient id="grad0-60" x1="0" y1="0" x2="1" y2="0" gradientTransform="rotate(90 0.5 0.5)">
			<stop offset="0" stop-color="#ffffff" stop-opacity="1"/>
			<stop offset="1" stop-color="#c0c0c0" stop-opacity="1"/>
		</linearGradient>
		<pattern id="grad10-88" x="0" y="0" width="1" height="1" patternContentUnits="objectBoundingBox">
			<path d="M 0.5 0.5 L 0 0 L 0 1 z" style="fill:url(#grad0-89)"/>
			<path d="M 0.5 0.5 L 1 0 L 1 1 z" style="fill:url(#grad0-90)"/>
			<path d="M 0.5 0.5 L 0 0 L 1 0 z" style="fill:url(#grad0-91)"/>
			<path d="M 0.5 0.5 L 0 1 L 1 1 z" style="fill:url(#grad0-92)"/>
		</pattern>
		<linearGradient id="grad0-89" x1="0" y1="0" x2="1" y2="0" gradientTransform="rotate(180 0.5 0.5)">
			<stop offset="0" stop-color="#ffffff" stop-opacity="1"/>
			<stop offset="1" stop-color="#c6d1e3" stop-opacity="1"/>
		</linearGradient>
		<linearGradient id="grad0-90" x1="0" y1="0" x2="1" y2="0" gradientTransform="rotate(360 0.5 0.5)">
			<stop offset="0" stop-color="#ffffff" stop-opacity="1"/>
			<stop offset="1" stop-color="#c6d1e3" stop-opacity="1"/>
		</linearGradient>
		<linearGradient id="grad0-91" x1="0" y1="0" x2="1" y2="0" gradientTransform="rotate(270 0.5 0.5)">
			<stop offset="0" stop-color="#ffffff" stop-opacity="1"/>
			<stop offset="1" stop-color="#c6d1e3" stop-opacity="1"/>
		</linearGradient>
		<linearGradient id="grad0-92" x1="0" y1="0" x2="1" y2="0" gradientTransform="rotate(90 0.5 0.5)">
			<stop offset="0" stop-color="#ffffff" stop-opacity="1"/>
			<stop offset="1" stop-color="#c6d1e3" stop-opacity="1"/>
		</linearGradient>
		<radialGradient id="grad7-103" cx="0" cy="0" r="1.4">
			<stop offset="0" stop-color="#ffffff" stop-opacity="1"/>
			<stop offset="1" stop-color="#c0c0c0" stop-opacity="1"/>
		</radialGradient>
		<linearGradient id="grad0-107" x1="0" y1="0" x2="1" y2="0" gradientTransform="rotate(180 0.5 0.5)">
			<stop offset="0.01" stop-color="#3e3e3e" stop-opacity="1"/>
			<stop offset="0.5" stop-color="#365fa9" stop-opacity="1"/>
			<stop offset="1" stop-color="#3e3e3e" stop-opacity="1"/>
		</linearGradient>
		<radialGradient id="grad3-118" cx="0.5" cy="0.5" r="0.73">
			<stop offset="0" stop-color="#ffffff" stop-opacity="1"/>
			<stop offset="1" stop-color="#008000" stop-opacity="1"/>
		</radialGradient>
		<linearGradient id="grad0-190" x1="0" y1="0" x2="1" y2="0" gradientTransform="rotate(270 0.5 0.5)">
			<stop offset="0" stop-color="#89a8dc" stop-opacity="1"/>
			<stop offset="1" stop-color="#3f5887" stop-opacity="1"/>
		</linearGradient>
		<linearGradient id="grad0-194" x1="0" y1="0" x2="1" y2="0" gradientTransform="rotate(0 0.5 0.5)">
			<stop offset="0" stop-color="#4067c1" stop-opacity="1"/>
			<stop offset="1" stop-color="#254b8b" stop-opacity="1"/>
		</linearGradient>
		<pattern id="grad10-198" x="0" y="0" width="1" height="1" patternContentUnits="objectBoundingBox">
			<path d="M 0.5 0.5 L 0 0 L 0 1 z" style="fill:url(#grad0-199)"/>
			<path d="M 0.5 0.5 L 1 0 L 1 1 z" style="fill:url(#grad0-200)"/>
			<path d="M 0.5 0.5 L 0 0 L 1 0 z" style="fill:url(#grad0-201)"/>
			<path d="M 0.5 0.5 L 0 1 L 1 1 z" style="fill:url(#grad0-202)"/>
		</pattern>
		<linearGradient id="grad0-199" x1="0" y1="0" x2="1" y2="0" gradientTransform="rotate(180 0.5 0.5)">
			<stop offset="0" stop-color="#4172c2" stop-opacity="1"/>
			<stop offset="1" stop-color="#a3bbe4" stop-opacity="1"/>
		</linearGradient>
		<linearGradient id="grad0-200" x1="0" y1="0" x2="1" y2="0" gradientTransform="rotate(360 0.5 0.5)">
			<stop offset="0" stop-color="#4172c2" stop-opacity="1"/>
			<stop offset="1" stop-color="#a3bbe4" stop-opacity="1"/>
		</linearGradient>
		<linearGradient id="grad0-201" x1="0" y1="0" x2="1" y2="0" gradientTransform="rotate(270 0.5 0.5)">
			<stop offset="0" stop-color="#4172c2" stop-opacity="1"/>
			<stop offset="1" stop-color="#a3bbe4" stop-opacity="1"/>
		</linearGradient>
		<linearGradient id="grad0-202" x1="0" y1="0" x2="1" y2="0" gradientTransform="rotate(90 0.5 0.5)">
			<stop offset="0" stop-color="#4172c2" stop-opacity="1"/>
			<stop offset="1" stop-color="#a3bbe4" stop-opacity="1"/>
		</linearGradient>
		<radialGradient id="grad7-206" cx="0" cy="0" r="1.4">
			<stop offset="0" stop-color="#b9d0ec" stop-opacity="1"/>
			<stop offset="1" stop-color="#254b8b" stop-opacity="1"/>
		</radialGradient>
		<radialGradient id="grad3-216" cx="0.5" cy="0.5" r="0.73">
			<stop offset="0" stop-color="#c8e5c8" stop-opacity="1"/>
			<stop offset="1" stop-color="#19bf19" stop-opacity="1"/>
		</radialGradient>
		<radialGradient id="grad1-223" cx="1" cy="1" r="1.4">
			<stop offset="0" stop-color="#3f6fc7" stop-opacity="1"/>
			<stop offset="1" stop-color="#afc8ed" stop-opacity="1"/>
		</radialGradient>
		<radialGradient id="grad3-236" cx="0.5" cy="0.5" r="0.73">
			<stop offset="0" stop-color="#3f6fc7" stop-opacity="1"/>
			<stop offset="1" stop-color="#222f6c" stop-opacity="1"/>
		</radialGradient>
		<linearGradient id="grad0-264" x1="0" y1="0" x2="1" y2="0" gradientTransform="rotate(270 0.5 0.5)">
			<stop offset="0" stop-color="#89a8dc" stop-opacity="1"/>
			<stop offset="1" stop-color="#577dce" stop-opacity="1"/>
		</linearGradient>
		<radialGradient id="grad7-277" cx="0" cy="0" r="1.4">
			<stop offset="0" stop-color="#799fdf" stop-opacity="1"/>
			<stop offset="1" stop-color="#afc8ed" stop-opacity="1"/>
		</radialGradient>
		<radialGradient id="grad3-294" cx="0.5" cy="0.5" r="0.73">
			<stop offset="0" stop-color="#ffffff" stop-opacity="1"/>
			<stop offset="1" stop-color="#4e8ec2" stop-opacity="1"/>
		</radialGradient>
		<radialGradient id="grad3-298" cx="0.5" cy="0.5" r="0.73">
			<stop offset="0" stop-color="#c6d1e3" stop-opacity="1"/>
			<stop offset="1" stop-color="#4e8ec2" stop-opacity="1"/>
		</radialGradient>
	</defs>
	<defs id="Markers">
		<g id="lend5">
			<path d="M 2 1 L 0 0 L 1.98117 -0.993387 C 1.67173 -0.364515 1.67301 0.372641 1.98465 1.00043 " style="stroke:none"/>
		</g>
		<marker id="mrkr5-422" class="st48" v:arrowType="5" v:arrowSize="2" v:setback="2.485" refX="-2.485" orient="auto"
				markerUnits="strokeWidth" overflow="visible">
			<use xlink:href="#lend5" transform="scale(-1.42,-1.42) "/>
		</marker>
	</defs>
	<g v:mID="0" v:index="1" v:groupContext="foregroundPage">
		<title>Page-1</title>
		<v:pageProperties v:drawingScale="0.0393701" v:pageScale="0.0393701" v:drawingUnits="24" v:shadowOffsetX="8.50394"
				v:shadowOffsetY="-8.50394"/>
		<g id="shape1268-1" v:mID="1268" v:groupContext="shape" transform="translate(563.625,-362.999)">
			<title>Rectangle.1268</title>
			<desc>Custom Application Separate System</desc>
			<v:userDefs>
				<v:ud v:nameU="visVersion" v:val="VT0(15):26"/>
			</v:userDefs>
			<v:textBlock v:margins="rect(4,4,4,4)" v:tabSpace="42.5197" v:verticalAlign="0"/>
			<v:textRect cx="64.1395" cy="435.575" width="128.28" height="144.653"/>
			<rect x="0" y="363.248" width="128.279" height="144.653" class="st1"/>
			<text x="26.81" y="388.85" class="st2" v:langID="1033"><v:paragraph v:horizAlign="1"/><v:tabList/>Custom <tspan
						x="8.85" dy="1.2em" class="st3">Application<v:newlineChar/></tspan><tspan x="16.66" dy="2.057em"
						class="st4">Separate System</tspan></text>		</g>
		<g id="shape3-6" v:mID="3" v:groupContext="shape" transform="translate(0.25,-90.1017)">
			<title>Rectangle.3</title>
			<desc>2SXC CMS - Headless Web API</desc>
			<v:userDefs>
				<v:ud v:nameU="visVersion" v:val="VT0(15):26"/>
			</v:userDefs>
			<v:textBlock v:margins="rect(4,4,4,4)" v:tabSpace="42.5197" v:verticalAlign="0"/>
			<v:textRect cx="345.827" cy="444.827" width="691.66" height="126.148"/>
			<rect x="0" y="381.753" width="691.654" height="126.148" class="st5"/>
			<text x="199.47" y="419.35" class="st2" v:langID="1033"><v:paragraph v:horizAlign="1"/><v:tabList/><v:lf/>2SXC CMS - Headless Web API</text>		</g>
		<g id="shape1085-9" v:mID="1085" v:groupContext="shape" transform="translate(281.937,-362.999)">
			<title>Rectangle.1085</title>
			<desc>Mobile JS / Native App</desc>
			<v:userDefs>
				<v:ud v:nameU="visVersion" v:val="VT0(15):26"/>
			</v:userDefs>
			<v:textBlock v:margins="rect(4,4,4,4)" v:tabSpace="42.5197" v:verticalAlign="0"/>
			<v:textRect cx="64.1395" cy="435.575" width="128.28" height="144.653"/>
			<rect x="0" y="363.248" width="128.279" height="144.653" class="st1"/>
			<text x="29.77" y="388.85" class="st2" v:langID="1033"><v:paragraph v:horizAlign="1"/><v:tabList/>Mobile <v:lf/><tspan
						x="13.08" dy="1.2em" class="st3">JS / Native<v:newlineChar/></tspan><tspan x="52.73" dy="2.057em"
						class="st4">App</tspan></text>		</g>
		<g id="shape1086-14" v:mID="1086" v:groupContext="shape" transform="translate(422.781,-362.999)">
			<title>Rectangle.1086</title>
			<desc>Custom Web Server External</desc>
			<v:userDefs>
				<v:ud v:nameU="visVersion" v:val="VT0(15):26"/>
			</v:userDefs>
			<v:textBlock v:margins="rect(4,4,4,4)" v:tabSpace="42.5197" v:verticalAlign="0"/>
			<v:textRect cx="64.1395" cy="435.575" width="128.28" height="144.653"/>
			<rect x="0" y="363.248" width="128.279" height="144.653" class="st1"/>
			<text x="26.81" y="388.85" class="st2" v:langID="1033"><v:paragraph v:horizAlign="1"/><v:tabList/>Custom <tspan
						x="7.23" dy="1.2em" class="st3">Web Server<v:newlineChar/></tspan><tspan x="40.78" dy="2.057em" class="st4">External</tspan></text>		</g>
		<g id="shape2-19" v:mID="2" v:groupContext="shape" transform="translate(17.7095,-102.594)">
			<title>Rectangle</title>
			<desc>Content REST</desc>
			<v:userDefs>
				<v:ud v:nameU="visVersion" v:val="VT0(15):26"/>
			</v:userDefs>
			<v:textBlock v:margins="rect(4,4,4,4)" v:tabSpace="42.5197"/>
			<v:textRect cx="88.1229" cy="482.538" width="176.25" height="50.727"/>
			<rect x="0" y="457.175" width="176.246" height="50.727" class="st6"/>
			<text x="22.33" y="489.74" class="st2" v:langID="1033"><v:paragraph v:horizAlign="1"/><v:tabList/>Content REST</text>		</g>
		<g id="shape4-22" v:mID="4" v:groupContext="shape" transform="translate(0.25,-0.25)">
			<title>Rectangle.4</title>
			<desc>Platform DNN</desc>
			<v:userDefs>
				<v:ud v:nameU="visVersion" v:val="VT0(15):26"/>
			</v:userDefs>
			<v:textBlock v:margins="rect(4,4,4,4)" v:tabSpace="42.5197"/>
			<v:textRect cx="82.6564" cy="467.36" width="165.32" height="81.0841"/>
			<rect x="0" y="426.818" width="165.313" height="81.0841" class="st7"/>
			<text x="57.88" y="457.16" class="st8" v:langID="1033"><v:paragraph v:horizAlign="1"/><v:tabList/>Platform<v:lf/><tspan
						x="59.78" dy="1.075em" class="st9">DNN</tspan></text>		</g>
		<g id="shape7-26" v:mID="7" v:groupContext="shape" transform="translate(0.25,-362.999)">
			<title>Rectangle.7</title>
			<desc>JavaScript or SPA On same page</desc>
			<v:userDefs>
				<v:ud v:nameU="visVersion" v:val="VT0(15):26"/>
			</v:userDefs>
			<v:textBlock v:margins="rect(4,4,4,4)" v:tabSpace="42.5197" v:verticalAlign="0"/>
			<v:textRect cx="64.1395" cy="435.575" width="128.28" height="144.653"/>
			<rect x="0" y="363.248" width="128.279" height="144.653" class="st1"/>
			<text x="15.55" y="388.85" class="st2" v:langID="1033"><v:paragraph v:horizAlign="1"/><v:tabList/>JavaScript <tspan
						x="32.26" dy="1.2em" class="st3">or SPA<v:newlineChar/></tspan><tspan x="23.69" dy="2.057em" class="st4">On same page</tspan></text>		</g>
		<g id="shape1000-31" v:mID="1000" v:groupContext="shape" transform="translate(175.546,-0.25)">
			<title>Rectangle.1000</title>
			<desc>Platform Oqtane</desc>
			<v:userDefs>
				<v:ud v:nameU="visVersion" v:val="VT0(15):26"/>
			</v:userDefs>
			<v:textBlock v:margins="rect(4,4,4,4)" v:tabSpace="42.5197"/>
			<v:textRect cx="82.6564" cy="467.36" width="165.32" height="81.0841"/>
			<rect x="0" y="426.818" width="165.313" height="81.0841" class="st7"/>
			<text x="57.88" y="457.16" class="st8" v:langID="1033"><v:paragraph v:horizAlign="1"/><v:tabList/>Platform<v:lf/><tspan
						x="46.36" dy="1.075em" class="st9">Oqtane</tspan></text>		</g>
		<g id="shape1001-35" v:mID="1001" v:groupContext="shape" transform="translate(350.843,-0.25)">
			<title>Rectangle.1001</title>
			<desc>Platform NopCommerce</desc>
			<v:userDefs>
				<v:ud v:nameU="visVersion" v:val="VT0(15):26"/>
			</v:userDefs>
			<v:textBlock v:margins="rect(4,4,4,4)" v:tabSpace="42.5197"/>
			<v:textRect cx="82.6564" cy="467.36" width="165.32" height="81.0841"/>
			<rect x="0" y="426.818" width="165.313" height="81.0841" class="st7"/>
			<text x="57.88" y="457.16" class="st8" v:langID="1033"><v:paragraph v:horizAlign="1"/><v:tabList/>Platform<v:lf/><tspan
						x="9.18" dy="1.075em" class="st9">NopCommerce</tspan></text>		</g>
		<g id="group1003-39" transform="translate(28.7457,-341.178)" v:mID="1003" v:groupContext="group">
			<v:custProps>
				<v:cp v:nameU="ShapeClass" v:lbl="ShapeClass" v:type="0" v:invis="true" v:ask="false" v:langID="1033"
						v:val="VT4(Equipment)"/>
				<v:cp v:nameU="ShapeType" v:lbl="ShapeType" v:type="0" v:invis="true" v:ask="false" v:langID="1033"
						v:val="VT4(Computer)"/>
				<v:cp v:nameU="SubShapeType" v:lbl="SubShapeType" v:type="0" v:invis="true" v:ask="false" v:langID="1033"
						v:val="VT4(Macintosh)"/>
				<v:cp v:nameU="Manufacturer" v:lbl="Manufacturer" v:type="0" v:sortKey="Equipment" v:invis="false" v:ask="false"
						v:langID="1033"/>
				<v:cp v:nameU="ProductNumber" v:lbl="Product Number" v:type="0" v:sortKey="Equipment" v:invis="false" v:ask="false"
						v:langID="1033"/>
				<v:cp v:nameU="PartNumber" v:lbl="Part Number" v:type="0" v:sortKey="Equipment" v:invis="false" v:ask="false"
						v:langID="1033"/>
				<v:cp v:nameU="ProductDescription" v:lbl="Product Description" v:type="0" v:sortKey="Equipment" v:invis="false"
						v:ask="false" v:langID="1033"/>
				<v:cp v:nameU="AssetNumber" v:lbl="Asset Number" v:type="0" v:sortKey="Asset" v:invis="false" v:ask="false"
						v:langID="1033"/>
				<v:cp v:nameU="SerialNumber" v:lbl="Serial Number" v:type="0" v:sortKey="Asset" v:invis="false" v:ask="false"
						v:langID="1033"/>
				<v:cp v:nameU="Location" v:lbl="Location" v:type="0" v:sortKey="Asset" v:invis="false" v:ask="false"
						v:langID="1033"/>
				<v:cp v:nameU="Building" v:lbl="Building" v:type="0" v:sortKey="Asset" v:invis="false" v:ask="false"
						v:langID="1033"/>
				<v:cp v:nameU="Room" v:lbl="Room" v:type="0" v:sortKey="Asset" v:invis="false" v:ask="false" v:langID="1033"/>
				<v:cp v:nameU="NetworkName" v:lbl="Network Name" v:type="0" v:sortKey="Network" v:invis="false" v:ask="false"
						v:langID="1033"/>
				<v:cp v:nameU="IPAddress" v:lbl="IP Address" v:type="0" v:sortKey="Network" v:invis="false" v:ask="false"
						v:langID="1033"/>
				<v:cp v:nameU="SubnetMask" v:lbl="Subnet Mask" v:type="0" v:sortKey="Network" v:invis="false" v:ask="false"
						v:langID="1033"/>
				<v:cp v:nameU="AdminInterface" v:lbl="Administrative Interface" v:type="0" v:sortKey="Network" v:invis="false"
						v:ask="false" v:langID="1033"/>
				<v:cp v:nameU="NumberofPorts" v:lbl="Number of Ports" v:type="0" v:sortKey="Network" v:invis="false" v:ask="false"
						v:langID="1033"/>
				<v:cp v:nameU="MACAddress" v:lbl="MAC Address" v:type="0" v:sortKey="Network" v:invis="false" v:ask="false"
						v:langID="1033"/>
				<v:cp v:nameU="CommunityString" v:lbl="Community String" v:type="0" v:sortKey="Network" v:invis="false"
						v:ask="false" v:langID="1033"/>
				<v:cp v:nameU="NetworkDescription" v:lbl="Network Description" v:type="0" v:sortKey="Network" v:invis="false"
						v:ask="false" v:langID="1033"/>
				<v:cp v:nameU="HardDriveSize" v:lbl="Hard Drive Capacity" v:type="0" v:sortKey="Workstation" v:invis="false"
						v:ask="false" v:langID="1033"/>
				<v:cp v:nameU="CPU" v:lbl="CPU" v:type="0" v:sortKey="Workstation" v:invis="false" v:ask="false" v:langID="1033"/>
				<v:cp v:nameU="Memory" v:lbl="Memory" v:type="0" v:sortKey="Workstation" v:invis="false" v:ask="false"
						v:langID="1033"/>
				<v:cp v:nameU="OperatingSystem" v:lbl="Operating System" v:type="0" v:sortKey="Workstation" v:invis="false"
						v:ask="false" v:langID="1033"/>
			</v:custProps>
			<v:userDefs>
				<v:ud v:nameU="HasText" v:val="VT0(0):5"/>
				<v:ud v:nameU="ShapeClass" v:val="VT0(5):26"/>
				<v:ud v:nameU="ShapeType" v:val="VT0(6):26"/>
				<v:ud v:nameU="SubShapeType" v:val="VT0(40):26"/>
				<v:ud v:nameU="SolSH" v:val="VT15({BF0433D9-CD73-4EB5-8390-8653BE590246}):41"/>
				<v:ud v:nameU="visLegendShape" v:val="VT0(2):26"/>
				<v:ud v:nameU="visVersion" v:prompt="" v:val="VT0(15):26"/>
			</v:userDefs>
			<title>New iMac.1003</title>
			<g id="shape1004-40" v:mID="1004" v:groupContext="shape">
				<title>Sheet.1004</title>
				<path d="M28.35 507.9 L40.75 500.81 L40.75 497.27 L12.05 480.83 L0 489.48 L0 491.6 L28.35 507.9 ZM30.12 439.29 L30.12
							 471.52 A86.8524 81.5835 -178.38 0 0 39.76 478.9 A16.4044 15.4092 -180 0 0 38.16 487.42 A18.7147 17.5794
							 -180 0 0 70.17 490.19 A16.4044 15.4092 -180 0 0 70.77 484.05 A16.4044 15.4092 -180 0 0 64.07 473.25
							 L64.08 454.4 A78.8203 74.0386 -178.53 0 0 34.02 437.04 L30.12 439.29 A76.6403 71.9909 1.25 0 1 60.24
							 456.59 A81.3782 76.4414 -178.75 0 0 30.12 439.29 Z" class="st10"/>
			</g>
			<g id="shape1005-42" v:mID="1005" v:groupContext="shape" transform="translate(38.0574,-10.484)">
				<title>Sheet.1005</title>
				<path d="M32.71 494.54 A16.4044 15.4092 -180 1 0 0.1 497.9 A18.7147 17.5794 -180 0 0 32.11 500.68 A16.4044 15.4092
							 -180 0 0 32.71 494.54 Z" class="st11"/>
			</g>
			<g id="shape1006-46" v:mID="1006" v:groupContext="shape" transform="translate(60.2362,-18.9921)">
				<title>Sheet.1006</title>
				<path d="M0 507.9 L3.83 505.7 L3.85 473.39 L0 475.59 L0 507.9 Z" class="st12"/>
			</g>
			<g id="shape1007-52" v:mID="1007" v:groupContext="shape" transform="translate(30.1159,-51.3071)">
				<title>Sheet.1007</title>
				<path d="M0 490.59 A76.6403 71.9909 1.25 0 1 30.12 507.9 L33.97 505.7 A78.8203 74.0386 -178.53 0 0 3.9 488.34 L0
							 490.59 Z" class="st11"/>
			</g>
			<g id="shape1008-55" v:mID="1008" v:groupContext="shape" transform="translate(30.1159,-18.9921)">
				<title>Sheet.1008</title>
				<path d="M0 490.51 A86.8524 81.5835 -178.38 0 0 30.12 507.9 L30.12 475.59 A81.3782 76.4414 -178.75 0 0 0 458.28 L0
							 490.51 Z" class="st13"/>
			</g>
			<g id="shape1009-61" v:mID="1009" v:groupContext="shape" transform="translate(30.1159,-10.509)">
				<title>Sheet.1009</title>
				<path d="M-0 482.03 A108.204 101.64 -176.15 0 0 9.33 489.46 A22.9187 21.5284 -180 0 0 8.23 497.89 A18.5239 17.4001
							 -180 0 0 40.03 500.67 A17.1899 16.1471 -1.65 0 0 33.96 483.76 L33.97 464.9 A78.8216 74.0398 -178.54
							 0 0 3.9 447.54 L0 449.79 L0 482.03" class="st14"/>
			</g>
			<g id="shape1010-64" v:mID="1010" v:groupContext="shape" transform="translate(33.0236,-22.8317)">
				<title>Sheet.1010</title>
				<path d="M0 466.1 L0 493.74 L24.38 507.9" class="st15"/>
			</g>
			<g id="shape1011-68" v:mID="1011" v:groupContext="shape" transform="translate(0,-2.12598)">
				<title>Sheet.1011</title>
				<path d="M0 491.6 L12.05 482.96 L40.75 499.4 L28.35 507.9 L0 491.6 Z" class="st11"/>
			</g>
			<g id="shape1012-71" v:mID="1012" v:groupContext="shape" transform="translate(28.3465,0)">
				<title>Sheet.1012</title>
				<path d="M0 507.9 L0 505.78 L12.4 497.27 L12.4 500.81 L0 507.9 Z" class="st12"/>
			</g>
			<g id="group1013-74" transform="translate(3.54331,-4.28414)" v:mID="1013" v:groupContext="group">
				<title>Sheet.1013</title>
				<g id="shape1014-75" v:mID="1014" v:groupContext="shape" transform="translate(0,-0.461147)">
					<title>Sheet.1014</title>
					<path d="M0 493.75 L2 494.9 L3.66 493.84 L1.66 492.69 L0 493.75 ZM2.47 492.13 L4.47 493.29 L6.13 492.22 L4.13
								 491.07 L2.47 492.13 ZM4.94 490.52 L6.94 491.67 L8.6 490.61 L6.6 489.46 L4.94 490.52 ZM7.41 488.9
								 L9.41 490.06 L11.07 489 L9.08 487.84 L7.41 488.9 ZM11.12 491.07 L13.11 492.22 L14.78 491.16 L12.78
								 490.01 L11.12 491.07 ZM14.82 493.24 L16.82 494.39 L18.48 493.33 L16.49 492.18 L14.82 493.24 ZM18.53
								 495.41 L20.53 496.56 L22.19 495.5 L20.19 494.34 L18.53 495.41 ZM25.94 499.74 L27.94 500.89 L29.6
								 499.83 L27.61 498.68 L25.94 499.74 ZM29.65 501.91 L31.64 503.06 L33.31 502 L31.31 500.85 L29.65
								 501.91 ZM27.18 503.52 L29.17 504.67 L30.84 503.61 L28.84 502.46 L27.18 503.52 ZM23.47 501.35 L25.47
								 502.51 L27.13 501.45 L25.13 500.29 L23.47 501.35 ZM22.24 497.57 L24.23 498.73 L25.9 497.66 L23.9
								 496.51 L22.24 497.57 ZM19.77 499.19 L21.76 500.34 L23.42 499.28 L21.43 498.13 L19.77 499.19 ZM16.06
								 497.02 L18.06 498.17 L19.72 497.11 L17.72 495.96 L16.06 497.02 ZM12.35 494.85 L14.35 496.01 L16.01
								 494.94 L14.02 493.79 L12.35 494.85 ZM8.65 492.69 L10.64 493.84 L12.31 492.78 L10.31 491.62 L8.65
								 492.69 ZM6.18 494.3 L8.17 495.45 L9.84 494.39 L7.84 493.24 L6.18 494.3 ZM9.88 496.47 L11.88 497.62
								 L13.54 496.56 L11.55 495.41 L9.88 496.47 ZM13.59 498.63 L15.58 499.79 L17.25 498.73 L15.25 497.57
								 L13.59 498.63 ZM17.29 500.8 L19.29 501.95 L20.95 500.89 L18.96 499.74 L17.29 500.8 ZM21 502.97 L23
								 504.12 L24.66 503.06 L22.66 501.91 L21 502.97 ZM24.71 505.14 L26.7 506.29 L28.37 505.23 L26.37 504.07
								 L24.71 505.14 ZM22.24 506.75 L24.23 507.9 L25.89 506.84 L23.9 505.69 L22.24 506.75 ZM18.53 504.58
								 L20.53 505.73 L22.19 504.67 L20.19 503.52 L18.53 504.58 ZM7.41 498.08 L16.82 503.57 L18.48 502.51
								 L9.07 497.02 L7.41 498.08 ZM3.71 495.91 L5.7 497.07 L7.36 496.01 L5.37 494.85 L3.71 495.91 Z"
							class="st16"/>
				</g>
				<g id="shape1015-77" v:mID="1015" v:groupContext="shape" transform="translate(0.000783843,1.7053E-13)">
					<title>Sheet.1015</title>
					<path d="M7.41 488.9 L9.41 490.06 L9.41 489.6 L7.41 488.44 L7.41 488.9 ZM11.12 491.07 L13.11 492.22 L13.11 491.76
								 L11.12 490.61 L11.12 491.07 ZM14.82 493.24 L16.82 494.39 L16.82 493.93 L14.82 492.78 L14.82 493.24
								 ZM18.53 495.4 L20.53 496.56 L20.53 496.1 L18.53 494.94 L18.53 495.4 ZM22.24 497.57 L24.23 498.73
								 L24.23 498.26 L22.24 497.11 L22.24 497.57 ZM25.94 499.74 L27.94 500.89 L27.94 500.43 L25.94 499.28
								 L25.94 499.74 ZM9.41 489.59 L9.41 490.06 L11.07 489 L11.07 488.53 L9.41 489.59 ZM13.11 491.76 L13.11
								 492.22 L14.78 491.16 L14.78 490.7 L13.11 491.76 ZM16.82 493.93 L16.82 494.39 L18.48 493.33 L18.48
								 492.87 L16.82 493.93 ZM20.53 496.1 L20.53 496.56 L22.19 495.5 L22.19 495.04 L20.53 496.1 ZM24.23
								 498.26 L24.23 498.72 L25.89 497.66 L25.89 497.2 L24.23 498.26 ZM27.94 500.43 L27.94 500.89 L29.6
								 499.83 L29.6 499.37 L27.94 500.43 ZM29.65 501.91 L31.64 503.06 L31.64 502.6 L29.65 501.44 L29.65
								 501.91 ZM31.64 502.6 L31.64 503.06 L33.31 502 L33.31 501.54 L31.64 502.6 ZM4.94 490.52 L6.94 491.67
								 L6.94 491.21 L4.94 490.06 L4.94 490.52 ZM8.65 492.69 L10.64 493.84 L10.64 493.38 L8.65 492.22 L8.65
								 492.69 ZM12.35 494.85 L14.35 496 L14.35 495.54 L12.35 494.39 L12.35 494.85 ZM16.06 497.02 L18.05
								 498.17 L18.05 497.71 L16.06 496.56 L16.06 497.02 ZM19.77 499.19 L21.76 500.34 L21.76 499.88 L19.77
								 498.72 L19.77 499.19 ZM23.47 501.35 L25.47 502.51 L25.47 502.05 L23.47 500.89 L23.47 501.35 ZM6.94
								 491.21 L6.94 491.67 L8.6 490.61 L8.6 490.15 L6.94 491.21 ZM10.64 493.38 L10.64 493.84 L12.31 492.78
								 L12.31 492.32 L10.64 493.38 ZM14.35 495.54 L14.35 496 L16.01 494.94 L16.01 494.48 L14.35 495.54
								 ZM18.05 497.71 L18.05 498.17 L19.72 497.11 L19.72 496.65 L18.05 497.71 ZM21.76 499.88 L21.76 500.34
								 L23.42 499.28 L23.42 498.82 L21.76 499.88 ZM25.47 502.04 L25.47 502.51 L27.13 501.45 L27.13 500.98
								 L25.47 502.04 ZM27.18 503.52 L29.17 504.67 L29.17 504.21 L27.18 503.06 L27.18 503.52 ZM29.17 504.21
								 L29.17 504.67 L30.84 503.61 L30.84 503.15 L29.17 504.21 ZM2.47 492.13 L4.47 493.28 L4.47 492.82
								 L2.47 491.67 L2.47 492.13 ZM6.18 494.3 L8.17 495.45 L8.17 494.99 L6.18 493.84 L6.18 494.3 ZM9.88
								 496.47 L11.88 497.62 L11.88 497.16 L9.88 496 L9.88 496.47 ZM13.59 498.63 L15.58 499.79 L15.58 499.33
								 L13.59 498.17 L13.59 498.63 ZM17.29 500.8 L19.29 501.95 L19.29 501.49 L17.29 500.34 L17.29 500.8
								 ZM21 502.97 L23 504.12 L23 503.66 L21 502.51 L21 502.97 ZM4.47 492.82 L4.47 493.28 L6.13 492.22
								 L6.13 491.76 L4.47 492.82 ZM8.17 494.99 L8.17 495.45 L9.83 494.39 L9.83 493.93 L8.17 494.99 ZM11.88
								 497.16 L11.88 497.62 L13.54 496.56 L13.54 496.1 L11.88 497.16 ZM15.58 499.32 L15.58 499.79 L17.25
								 498.73 L17.25 498.26 L15.58 499.32 ZM19.29 501.49 L19.29 501.95 L20.95 500.89 L20.95 500.43 L19.29
								 501.49 ZM23 503.66 L23 504.12 L24.66 503.06 L24.66 502.6 L23 503.66 ZM24.71 505.13 L26.7 506.29
								 L26.7 505.83 L24.71 504.67 L24.71 505.13 ZM26.7 505.83 L26.7 506.29 L28.36 505.23 L28.36 504.77
								 L26.7 505.83 ZM0 493.75 L2 494.9 L2 494.44 L0 493.28 L0 493.75 ZM3.71 495.91 L5.7 497.07 L5.7 496.61
								 L3.71 495.45 L3.71 495.91 ZM7.41 498.08 L16.82 503.57 L16.82 503.11 L7.41 497.62 L7.41 498.08 ZM18.53
								 504.58 L20.52 505.74 L20.52 505.27 L18.53 504.12 L18.53 504.58 ZM1.99 494.44 L1.99 494.9 L3.66 493.84
								 L3.66 493.38 L1.99 494.44 ZM5.7 496.6 L5.7 497.07 L7.36 496 L7.36 495.54 L5.7 496.6 ZM16.82 503.11
								 L16.82 503.57 L18.48 502.51 L18.48 502.05 L16.82 503.11 ZM20.52 505.27 L20.52 505.73 L22.19 504.67
								 L22.19 504.21 L20.52 505.27 ZM22.24 506.75 L24.23 507.9 L24.23 507.44 L22.24 506.29 L22.24 506.75
								 ZM24.23 507.44 L24.23 507.9 L25.89 506.84 L25.89 506.38 L24.23 507.44 Z" class="st17"/>
				</g>
			</g>
			<g id="shape1016-79" v:mID="1016" v:groupContext="shape">
				<title>Sheet.1016</title>
				<path d="M0 491.6 L28.35 507.9 L28.35 505.78 L0 489.48 L0 491.6 Z" class="st13"/>
			</g>
			<g id="shape1017-82" v:mID="1017" v:groupContext="shape">
				<title>Sheet.1017</title>
				<path d="M0 489.48 L12.05 480.83 L40.75 497.27 L40.75 500.81 L28.35 507.9 L0 491.6 L0 489.48" class="st14"/>
			</g>
			<g id="shape1018-85" v:mID="1018" v:groupContext="shape" transform="translate(33.0236,-22.8317)">
				<title>Sheet.1018</title>
				<path d="M0.61 493.27 L24.38 507.07 L24.38 480.13 L0.61 466.44 L0.61 493.27 Z" class="st18"/>
				<path d="M0.61 493.27 L24.38 507.07 L24.38 480.13 L0.61 466.44 L0.61 493.27" class="st19"/>
				<path d="M24.38 507.07 L24.38 508.32" class="st19"/>
				<path d="M0.61 466.44 L0 466.1" class="st19"/>
			</g>
		</g>
		<g id="group1020-96" transform="translate(316.313,-345.43)" v:mID="1020" v:groupContext="group">
			<v:custProps>
				<v:cp v:nameU="ShapeClass" v:lbl="ShapeClass" v:type="0" v:invis="true" v:ask="false" v:langID="1033"
						v:val="VT4(Equipment)"/>
				<v:cp v:nameU="ShapeType" v:lbl="ShapeType" v:type="0" v:invis="true" v:ask="false" v:langID="1033"
						v:val="VT4(Computer)"/>
				<v:cp v:nameU="SubShapeType" v:lbl="SubShapeType" v:type="0" v:invis="true" v:ask="false" v:langID="1033"
						v:val="VT4(Tablet)"/>
				<v:cp v:nameU="Manufacturer" v:lbl="Manufacturer" v:type="0" v:sortKey="Equipment" v:invis="false" v:ask="false"
						v:langID="1033"/>
				<v:cp v:nameU="ProductNumber" v:lbl="Product Number" v:type="0" v:sortKey="Equipment" v:invis="false" v:ask="false"
						v:langID="1033"/>
				<v:cp v:nameU="PartNumber" v:lbl="Part Number" v:type="0" v:sortKey="Equipment" v:invis="false" v:ask="false"
						v:langID="1033"/>
				<v:cp v:nameU="ProductDescription" v:lbl="Product Description" v:type="0" v:sortKey="Equipment" v:invis="false"
						v:ask="false" v:langID="1033"/>
				<v:cp v:nameU="AssetNumber" v:lbl="Asset Number" v:type="0" v:sortKey="Asset" v:invis="false" v:ask="false"
						v:langID="1033"/>
				<v:cp v:nameU="SerialNumber" v:lbl="Serial Number" v:type="0" v:sortKey="Asset" v:invis="false" v:ask="false"
						v:langID="1033"/>
				<v:cp v:nameU="Location" v:lbl="Location" v:type="0" v:sortKey="Asset" v:invis="false" v:ask="false"
						v:langID="1033"/>
				<v:cp v:nameU="Building" v:lbl="Building" v:type="0" v:sortKey="Asset" v:invis="false" v:ask="false"
						v:langID="1033"/>
				<v:cp v:nameU="Room" v:lbl="Room" v:type="0" v:sortKey="Asset" v:invis="false" v:ask="false" v:langID="1033"/>
				<v:cp v:nameU="NetworkName" v:lbl="Network Name" v:type="0" v:sortKey="Network" v:invis="false" v:ask="false"
						v:langID="1033"/>
				<v:cp v:nameU="IPAddress" v:lbl="IP Address" v:type="0" v:sortKey="Network" v:invis="false" v:ask="false"
						v:langID="1033"/>
				<v:cp v:nameU="SubnetMask" v:lbl="Subnet Mask" v:type="0" v:sortKey="Network" v:invis="false" v:ask="false"
						v:langID="1033"/>
				<v:cp v:nameU="AdminInterface" v:lbl="Administrative Interface" v:type="0" v:sortKey="Network" v:invis="false"
						v:ask="false" v:langID="1033"/>
				<v:cp v:nameU="NumberofPorts" v:lbl="Number of Ports" v:type="0" v:sortKey="Network" v:invis="false" v:ask="false"
						v:langID="1033"/>
				<v:cp v:nameU="MACAddress" v:lbl="MAC Address" v:type="0" v:sortKey="Network" v:invis="false" v:ask="false"
						v:langID="1033"/>
				<v:cp v:nameU="CommunityString" v:lbl="Community String" v:type="0" v:sortKey="Network" v:invis="false"
						v:ask="false" v:langID="1033"/>
				<v:cp v:nameU="NetworkDescription" v:lbl="Network Description" v:type="0" v:sortKey="Network" v:invis="false"
						v:ask="false" v:langID="1033"/>
				<v:cp v:nameU="HardDriveSize" v:lbl="Hard Drive Capacity" v:type="0" v:sortKey="Workstation" v:invis="false"
						v:ask="false" v:langID="1033"/>
				<v:cp v:nameU="CPU" v:lbl="CPU" v:type="0" v:sortKey="Workstation" v:invis="false" v:ask="false" v:langID="1033"/>
				<v:cp v:nameU="Memory" v:lbl="Memory" v:type="0" v:sortKey="Workstation" v:invis="false" v:ask="false"
						v:langID="1033"/>
				<v:cp v:nameU="OperatingSystem" v:lbl="Operating System" v:type="0" v:sortKey="Workstation" v:invis="false"
						v:ask="false" v:langID="1033"/>
			</v:custProps>
			<v:userDefs>
				<v:ud v:nameU="HasText" v:val="VT0(0):5"/>
				<v:ud v:nameU="ShapeClass" v:val="VT0(5):26"/>
				<v:ud v:nameU="ShapeType" v:val="VT0(6):26"/>
				<v:ud v:nameU="SubShapeType" v:val="VT0(69):26"/>
				<v:ud v:nameU="SolSH" v:val="VT15({BF0433D9-CD73-4EB5-8390-8653BE590246}):41"/>
				<v:ud v:nameU="visLegendShape" v:val="VT0(2):26"/>
				<v:ud v:nameU="visVersion" v:prompt="" v:val="VT0(15):26"/>
			</v:userDefs>
			<title>Tablet computer.1020</title>
			<g id="shape1021-97" v:mID="1021" v:groupContext="shape" transform="translate(0,8.6288E-06)">
				<title>Sheet.1021</title>
				<path d="M14.22 449.46 A98.8194 91.1951 89.84 0 1 25.74 455.35 A98.9467 91.3126 -89.8 0 0 14.22 449.46 ZM1.45 461.75
							 a1.51991 0.898047 -80 1 0 -0.249495 2.69204 A2.48638 2.29454 90 0 1 0.96 464.74 L14.22 467.21 L14.22
							 493.65 A65.9634 60.874 -90.11 0 0 37.35 507.9 A7.34448 6.77798 -89.38 0 0 41.71 504.64 L41.77 461.01
							 A3.55511 3.28081 89.94 0 1 37.35 463.71 A3.86314 3.56531 -89 0 0 41.77 461.01 A79.1328 73.0279 -90.37
							 0 0 18.44 446.89 A4.2179 3.89249 -89.71 0 0 14.22 449.46 L14.22 464.72 L1.42 461.75 L1.45 461.75 Z"
						class="st20"/>
				<path d="M14.22 449.46 A98.8194 91.1951 89.84 0 1 25.74 455.35 A98.9467 91.3126 -89.8 0 0 14.22 449.46M1.45 461.75
							 a1.51991 0.898047 -80 1 0 -0.249495 2.69204 A2.48638 2.29454 90 0 1 0.96 464.74 L14.22 467.21 L14.22
							 493.65 A65.9634 60.874 -90.11 0 0 37.35 507.9 A7.34448 6.77798 -89.38 0 0 41.71 504.64 L41.77 461.01
							 A3.55511 3.28081 89.94 0 1 37.35 463.71 A3.86314 3.56531 -89 0 0 41.77 461.01 A79.1328 73.0279 -90.37
							 0 0 18.44 446.89 A4.2179 3.89249 -89.71 0 0 14.22 449.46 L14.22 464.72 L1.42 461.75" class="st21"/>
			</g>
			<g id="shape1022-100" v:mID="1022" v:groupContext="shape" transform="translate(14.9669,0)">
				<title>Sheet.1022</title>
				<path d="M-0 493.65 A65.9634 60.874 -90.11 0 0 23.13 507.9 L23.13 463.71 A98.9467 91.3126 -89.8 0 0 0 449.46 L0 493.65
							 Z" class="st22"/>
			</g>
			<g id="shape1023-104" v:mID="1023" v:groupContext="shape" transform="translate(38.0976,0)">
				<title>Sheet.1023</title>
				<path d="M-0 507.9 A7.34448 6.77798 -89.38 0 0 4.36 504.64 L4.42 461.01 A3.55511 3.28081 89.94 0 1 0 463.71 L0 507.9
							 Z" class="st23"/>
			</g>
			<g id="shape1024-108" v:mID="1024" v:groupContext="shape" transform="translate(14.9669,-44.0414)">
				<title>Sheet.1024</title>
				<path d="M-0 493.5 A98.8194 91.1951 89.84 0 1 23.13 507.75 A3.86314 3.56531 -89 0 0 27.55 505.05 A79.1328 73.0279
							 -90.37 0 0 4.22 490.93 A4.2179 3.89249 -89.71 0 0 0 493.5 Z" class="st11"/>
			</g>
			<g id="shape1025-111" v:mID="1025" v:groupContext="shape" transform="translate(17.28,-6.4144)">
				<title>Sheet.1025</title>
				<path d="M19.12 507.9 L0 496.36 L0 459.65" class="st15"/>
			</g>
			<g id="shape1026-115" v:mID="1026" v:groupContext="shape" transform="translate(-221.881,63.2352) rotate(-30)">
				<title>Sheet.1026</title>
				<ellipse cx="0.798968" cy="506.854" rx="0.798968" ry="1.04807" class="st24"/>
			</g>
			<g id="shape1028-119" v:mID="1028" v:groupContext="shape" transform="translate(17.28,-6.4144)">
				<title>Sheet.1028</title>
				<path d="M0.75 495.93 L19.12 507.19 L19.12 507.9 L19.12 471.2 L0 459.65 L0.75 460.15 L0.75 495.93 Z" class="st25"/>
			</g>
			<g id="shape1031-122" v:mID="1031" v:groupContext="shape" transform="translate(14.3375,8.6288E-06)">
				<title>Sheet.1031</title>
				<path d="M0.63 493.65 A67.6418 61.7957 -90.39 0 0 23.76 507.9 A5.29999 4.84201 -90.69 0 0 28.12 504.92 L28.18 461.01
							 A85.9496 78.522 -90.57 0 0 4.85 446.89 A4.30935 3.93692 -89.53 0 0 0.63 449.46 L0.63 463.79 L0.63 463.11
							 A1.68449 1.53889 -134.2 0 0 0.63 465.67 A1.80597 1.64987 -54.65 0 0 0.63 467.65 L0.63 467.83 L0.63 493.65"
						class="st14"/>
			</g>
		</g>
		<g id="shape1084-125" v:mID="1084" v:groupContext="shape" transform="translate(141.094,-362.999)">
			<title>Rectangle.1084</title>
			<desc>JavaScript Elsewhere</desc>
			<v:userDefs>
				<v:ud v:nameU="visVersion" v:val="VT0(15):26"/>
			</v:userDefs>
			<v:textBlock v:margins="rect(4,4,4,4)" v:tabSpace="42.5197" v:verticalAlign="0"/>
			<v:textRect cx="64.1395" cy="435.575" width="128.28" height="144.653"/>
			<rect x="0" y="363.248" width="128.279" height="144.653" class="st1"/>
			<text x="15.55" y="388.85" class="st2" v:langID="1033"><v:paragraph v:horizAlign="1"/><v:tabList/>JavaScript<v:lf/><v:newlineChar/><tspan
						x="34.81" dy="4.114em" class="st4">Elsewhere</tspan></text>		</g>
		<g id="group1087-129" transform="translate(169.732,-341.178)" v:mID="1087" v:groupContext="group">
			<v:custProps>
				<v:cp v:nameU="ShapeClass" v:lbl="ShapeClass" v:type="0" v:invis="true" v:ask="false" v:langID="1033"
						v:val="VT4(Equipment)"/>
				<v:cp v:nameU="ShapeType" v:lbl="ShapeType" v:type="0" v:invis="true" v:ask="false" v:langID="1033"
						v:val="VT4(Computer)"/>
				<v:cp v:nameU="SubShapeType" v:lbl="SubShapeType" v:type="0" v:invis="true" v:ask="false" v:langID="1033"
						v:val="VT4(Macintosh)"/>
				<v:cp v:nameU="Manufacturer" v:lbl="Manufacturer" v:type="0" v:sortKey="Equipment" v:invis="false" v:ask="false"
						v:langID="1033"/>
				<v:cp v:nameU="ProductNumber" v:lbl="Product Number" v:type="0" v:sortKey="Equipment" v:invis="false" v:ask="false"
						v:langID="1033"/>
				<v:cp v:nameU="PartNumber" v:lbl="Part Number" v:type="0" v:sortKey="Equipment" v:invis="false" v:ask="false"
						v:langID="1033"/>
				<v:cp v:nameU="ProductDescription" v:lbl="Product Description" v:type="0" v:sortKey="Equipment" v:invis="false"
						v:ask="false" v:langID="1033"/>
				<v:cp v:nameU="AssetNumber" v:lbl="Asset Number" v:type="0" v:sortKey="Asset" v:invis="false" v:ask="false"
						v:langID="1033"/>
				<v:cp v:nameU="SerialNumber" v:lbl="Serial Number" v:type="0" v:sortKey="Asset" v:invis="false" v:ask="false"
						v:langID="1033"/>
				<v:cp v:nameU="Location" v:lbl="Location" v:type="0" v:sortKey="Asset" v:invis="false" v:ask="false"
						v:langID="1033"/>
				<v:cp v:nameU="Building" v:lbl="Building" v:type="0" v:sortKey="Asset" v:invis="false" v:ask="false"
						v:langID="1033"/>
				<v:cp v:nameU="Room" v:lbl="Room" v:type="0" v:sortKey="Asset" v:invis="false" v:ask="false" v:langID="1033"/>
				<v:cp v:nameU="NetworkName" v:lbl="Network Name" v:type="0" v:sortKey="Network" v:invis="false" v:ask="false"
						v:langID="1033"/>
				<v:cp v:nameU="IPAddress" v:lbl="IP Address" v:type="0" v:sortKey="Network" v:invis="false" v:ask="false"
						v:langID="1033"/>
				<v:cp v:nameU="SubnetMask" v:lbl="Subnet Mask" v:type="0" v:sortKey="Network" v:invis="false" v:ask="false"
						v:langID="1033"/>
				<v:cp v:nameU="AdminInterface" v:lbl="Administrative Interface" v:type="0" v:sortKey="Network" v:invis="false"
						v:ask="false" v:langID="1033"/>
				<v:cp v:nameU="NumberofPorts" v:lbl="Number of Ports" v:type="0" v:sortKey="Network" v:invis="false" v:ask="false"
						v:langID="1033"/>
				<v:cp v:nameU="MACAddress" v:lbl="MAC Address" v:type="0" v:sortKey="Network" v:invis="false" v:ask="false"
						v:langID="1033"/>
				<v:cp v:nameU="CommunityString" v:lbl="Community String" v:type="0" v:sortKey="Network" v:invis="false"
						v:ask="false" v:langID="1033"/>
				<v:cp v:nameU="NetworkDescription" v:lbl="Network Description" v:type="0" v:sortKey="Network" v:invis="false"
						v:ask="false" v:langID="1033"/>
				<v:cp v:nameU="HardDriveSize" v:lbl="Hard Drive Capacity" v:type="0" v:sortKey="Workstation" v:invis="false"
						v:ask="false" v:langID="1033"/>
				<v:cp v:nameU="CPU" v:lbl="CPU" v:type="0" v:sortKey="Workstation" v:invis="false" v:ask="false" v:langID="1033"/>
				<v:cp v:nameU="Memory" v:lbl="Memory" v:type="0" v:sortKey="Workstation" v:invis="false" v:ask="false"
						v:langID="1033"/>
				<v:cp v:nameU="OperatingSystem" v:lbl="Operating System" v:type="0" v:sortKey="Workstation" v:invis="false"
						v:ask="false" v:langID="1033"/>
			</v:custProps>
			<v:userDefs>
				<v:ud v:nameU="HasText" v:val="VT0(0):5"/>
				<v:ud v:nameU="ShapeClass" v:val="VT0(5):26"/>
				<v:ud v:nameU="ShapeType" v:val="VT0(6):26"/>
				<v:ud v:nameU="SubShapeType" v:val="VT0(40):26"/>
				<v:ud v:nameU="SolSH" v:val="VT15({BF0433D9-CD73-4EB5-8390-8653BE590246}):41"/>
				<v:ud v:nameU="visLegendShape" v:val="VT0(2):26"/>
				<v:ud v:nameU="visVersion" v:prompt="" v:val="VT0(15):26"/>
			</v:userDefs>
			<title>New iMac.1087</title>
			<g id="shape1088-130" v:mID="1088" v:groupContext="shape">
				<title>Sheet.1088</title>
				<path d="M28.35 507.9 L40.75 500.81 L40.75 497.27 L12.05 480.83 L0 489.48 L0 491.6 L28.35 507.9 ZM30.12 439.29 L30.12
							 471.52 A86.8524 81.5835 -178.38 0 0 39.76 478.9 A16.4044 15.4092 -180 0 0 38.16 487.42 A18.7147 17.5794
							 -180 0 0 70.17 490.19 A16.4044 15.4092 -180 0 0 70.77 484.05 A16.4044 15.4092 -180 0 0 64.07 473.25
							 L64.08 454.4 A78.8203 74.0386 -178.53 0 0 34.02 437.04 L30.12 439.29 A76.6403 71.9909 1.25 0 1 60.24
							 456.59 A81.3782 76.4414 -178.75 0 0 30.12 439.29 Z" class="st10"/>
			</g>
			<g id="shape1089-132" v:mID="1089" v:groupContext="shape" transform="translate(38.0574,-10.484)">
				<title>Sheet.1089</title>
				<path d="M32.71 494.54 A16.4044 15.4092 -180 1 0 0.1 497.9 A18.7147 17.5794 -180 0 0 32.11 500.68 A16.4044 15.4092
							 -180 0 0 32.71 494.54 Z" class="st11"/>
			</g>
			<g id="shape1090-135" v:mID="1090" v:groupContext="shape" transform="translate(60.2362,-18.9921)">
				<title>Sheet.1090</title>
				<path d="M0 507.9 L3.83 505.7 L3.85 473.39 L0 475.59 L0 507.9 Z" class="st12"/>
			</g>
			<g id="shape1091-138" v:mID="1091" v:groupContext="shape" transform="translate(30.1159,-51.3071)">
				<title>Sheet.1091</title>
				<path d="M0 490.59 A76.6403 71.9909 1.25 0 1 30.12 507.9 L33.97 505.7 A78.8203 74.0386 -178.53 0 0 3.9 488.34 L0
							 490.59 Z" class="st11"/>
			</g>
			<g id="shape1092-141" v:mID="1092" v:groupContext="shape" transform="translate(30.1159,-18.9921)">
				<title>Sheet.1092</title>
				<path d="M0 490.51 A86.8524 81.5835 -178.38 0 0 30.12 507.9 L30.12 475.59 A81.3782 76.4414 -178.75 0 0 0 458.28 L0
							 490.51 Z" class="st13"/>
			</g>
			<g id="shape1093-144" v:mID="1093" v:groupContext="shape" transform="translate(30.1159,-10.509)">
				<title>Sheet.1093</title>
				<path d="M-0 482.03 A108.204 101.64 -176.15 0 0 9.33 489.46 A22.9187 21.5284 -180 0 0 8.23 497.89 A18.5239 17.4001
							 -180 0 0 40.03 500.67 A17.1899 16.1471 -1.65 0 0 33.96 483.76 L33.97 464.9 A78.8216 74.0398 -178.54
							 0 0 3.9 447.54 L0 449.79 L0 482.03" class="st14"/>
			</g>
			<g id="shape1094-147" v:mID="1094" v:groupContext="shape" transform="translate(33.0236,-22.8317)">
				<title>Sheet.1094</title>
				<path d="M0 466.1 L0 493.74 L24.38 507.9" class="st15"/>
			</g>
			<g id="shape1095-151" v:mID="1095" v:groupContext="shape" transform="translate(0,-2.12598)">
				<title>Sheet.1095</title>
				<path d="M0 491.6 L12.05 482.96 L40.75 499.4 L28.35 507.9 L0 491.6 Z" class="st11"/>
			</g>
			<g id="shape1096-154" v:mID="1096" v:groupContext="shape" transform="translate(28.3465,0)">
				<title>Sheet.1096</title>
				<path d="M0 507.9 L0 505.78 L12.4 497.27 L12.4 500.81 L0 507.9 Z" class="st12"/>
			</g>
			<g id="group1097-157" transform="translate(3.54331,-4.28414)" v:mID="1097" v:groupContext="group">
				<title>Sheet.1097</title>
				<g id="shape1098-158" v:mID="1098" v:groupContext="shape" transform="translate(0,-0.461147)">
					<title>Sheet.1098</title>
					<path d="M0 493.75 L2 494.9 L3.66 493.84 L1.66 492.69 L0 493.75 ZM2.47 492.13 L4.47 493.29 L6.13 492.22 L4.13
								 491.07 L2.47 492.13 ZM4.94 490.52 L6.94 491.67 L8.6 490.61 L6.6 489.46 L4.94 490.52 ZM7.41 488.9
								 L9.41 490.06 L11.07 489 L9.08 487.84 L7.41 488.9 ZM11.12 491.07 L13.11 492.22 L14.78 491.16 L12.78
								 490.01 L11.12 491.07 ZM14.82 493.24 L16.82 494.39 L18.48 493.33 L16.49 492.18 L14.82 493.24 ZM18.53
								 495.41 L20.53 496.56 L22.19 495.5 L20.19 494.34 L18.53 495.41 ZM25.94 499.74 L27.94 500.89 L29.6
								 499.83 L27.61 498.68 L25.94 499.74 ZM29.65 501.91 L31.64 503.06 L33.31 502 L31.31 500.85 L29.65
								 501.91 ZM27.18 503.52 L29.17 504.67 L30.84 503.61 L28.84 502.46 L27.18 503.52 ZM23.47 501.35 L25.47
								 502.51 L27.13 501.45 L25.13 500.29 L23.47 501.35 ZM22.24 497.57 L24.23 498.73 L25.9 497.66 L23.9
								 496.51 L22.24 497.57 ZM19.77 499.19 L21.76 500.34 L23.42 499.28 L21.43 498.13 L19.77 499.19 ZM16.06
								 497.02 L18.06 498.17 L19.72 497.11 L17.72 495.96 L16.06 497.02 ZM12.35 494.85 L14.35 496.01 L16.01
								 494.94 L14.02 493.79 L12.35 494.85 ZM8.65 492.69 L10.64 493.84 L12.31 492.78 L10.31 491.62 L8.65
								 492.69 ZM6.18 494.3 L8.17 495.45 L9.84 494.39 L7.84 493.24 L6.18 494.3 ZM9.88 496.47 L11.88 497.62
								 L13.54 496.56 L11.55 495.41 L9.88 496.47 ZM13.59 498.63 L15.58 499.79 L17.25 498.73 L15.25 497.57
								 L13.59 498.63 ZM17.29 500.8 L19.29 501.95 L20.95 500.89 L18.96 499.74 L17.29 500.8 ZM21 502.97 L23
								 504.12 L24.66 503.06 L22.66 501.91 L21 502.97 ZM24.71 505.14 L26.7 506.29 L28.37 505.23 L26.37 504.07
								 L24.71 505.14 ZM22.24 506.75 L24.23 507.9 L25.89 506.84 L23.9 505.69 L22.24 506.75 ZM18.53 504.58
								 L20.53 505.73 L22.19 504.67 L20.19 503.52 L18.53 504.58 ZM7.41 498.08 L16.82 503.57 L18.48 502.51
								 L9.07 497.02 L7.41 498.08 ZM3.71 495.91 L5.7 497.07 L7.36 496.01 L5.37 494.85 L3.71 495.91 Z"
							class="st16"/>
				</g>
				<g id="shape1099-160" v:mID="1099" v:groupContext="shape" transform="translate(0.000783843,1.7053E-13)">
					<title>Sheet.1099</title>
					<path d="M7.41 488.9 L9.41 490.06 L9.41 489.6 L7.41 488.44 L7.41 488.9 ZM11.12 491.07 L13.11 492.22 L13.11 491.76
								 L11.12 490.61 L11.12 491.07 ZM14.82 493.24 L16.82 494.39 L16.82 493.93 L14.82 492.78 L14.82 493.24
								 ZM18.53 495.4 L20.53 496.56 L20.53 496.1 L18.53 494.94 L18.53 495.4 ZM22.24 497.57 L24.23 498.73
								 L24.23 498.26 L22.24 497.11 L22.24 497.57 ZM25.94 499.74 L27.94 500.89 L27.94 500.43 L25.94 499.28
								 L25.94 499.74 ZM9.41 489.59 L9.41 490.06 L11.07 489 L11.07 488.53 L9.41 489.59 ZM13.11 491.76 L13.11
								 492.22 L14.78 491.16 L14.78 490.7 L13.11 491.76 ZM16.82 493.93 L16.82 494.39 L18.48 493.33 L18.48
								 492.87 L16.82 493.93 ZM20.53 496.1 L20.53 496.56 L22.19 495.5 L22.19 495.04 L20.53 496.1 ZM24.23
								 498.26 L24.23 498.72 L25.89 497.66 L25.89 497.2 L24.23 498.26 ZM27.94 500.43 L27.94 500.89 L29.6
								 499.83 L29.6 499.37 L27.94 500.43 ZM29.65 501.91 L31.64 503.06 L31.64 502.6 L29.65 501.44 L29.65
								 501.91 ZM31.64 502.6 L31.64 503.06 L33.31 502 L33.31 501.54 L31.64 502.6 ZM4.94 490.52 L6.94 491.67
								 L6.94 491.21 L4.94 490.06 L4.94 490.52 ZM8.65 492.69 L10.64 493.84 L10.64 493.38 L8.65 492.22 L8.65
								 492.69 ZM12.35 494.85 L14.35 496 L14.35 495.54 L12.35 494.39 L12.35 494.85 ZM16.06 497.02 L18.05
								 498.17 L18.05 497.71 L16.06 496.56 L16.06 497.02 ZM19.77 499.19 L21.76 500.34 L21.76 499.88 L19.77
								 498.72 L19.77 499.19 ZM23.47 501.35 L25.47 502.51 L25.47 502.05 L23.47 500.89 L23.47 501.35 ZM6.94
								 491.21 L6.94 491.67 L8.6 490.61 L8.6 490.15 L6.94 491.21 ZM10.64 493.38 L10.64 493.84 L12.31 492.78
								 L12.31 492.32 L10.64 493.38 ZM14.35 495.54 L14.35 496 L16.01 494.94 L16.01 494.48 L14.35 495.54
								 ZM18.05 497.71 L18.05 498.17 L19.72 497.11 L19.72 496.65 L18.05 497.71 ZM21.76 499.88 L21.76 500.34
								 L23.42 499.28 L23.42 498.82 L21.76 499.88 ZM25.47 502.04 L25.47 502.51 L27.13 501.45 L27.13 500.98
								 L25.47 502.04 ZM27.18 503.52 L29.17 504.67 L29.17 504.21 L27.18 503.06 L27.18 503.52 ZM29.17 504.21
								 L29.17 504.67 L30.84 503.61 L30.84 503.15 L29.17 504.21 ZM2.47 492.13 L4.47 493.28 L4.47 492.82
								 L2.47 491.67 L2.47 492.13 ZM6.18 494.3 L8.17 495.45 L8.17 494.99 L6.18 493.84 L6.18 494.3 ZM9.88
								 496.47 L11.88 497.62 L11.88 497.16 L9.88 496 L9.88 496.47 ZM13.59 498.63 L15.58 499.79 L15.58 499.33
								 L13.59 498.17 L13.59 498.63 ZM17.29 500.8 L19.29 501.95 L19.29 501.49 L17.29 500.34 L17.29 500.8
								 ZM21 502.97 L23 504.12 L23 503.66 L21 502.51 L21 502.97 ZM4.47 492.82 L4.47 493.28 L6.13 492.22
								 L6.13 491.76 L4.47 492.82 ZM8.17 494.99 L8.17 495.45 L9.83 494.39 L9.83 493.93 L8.17 494.99 ZM11.88
								 497.16 L11.88 497.62 L13.54 496.56 L13.54 496.1 L11.88 497.16 ZM15.58 499.32 L15.58 499.79 L17.25
								 498.73 L17.25 498.26 L15.58 499.32 ZM19.29 501.49 L19.29 501.95 L20.95 500.89 L20.95 500.43 L19.29
								 501.49 ZM23 503.66 L23 504.12 L24.66 503.06 L24.66 502.6 L23 503.66 ZM24.71 505.13 L26.7 506.29
								 L26.7 505.83 L24.71 504.67 L24.71 505.13 ZM26.7 505.83 L26.7 506.29 L28.36 505.23 L28.36 504.77
								 L26.7 505.83 ZM0 493.75 L2 494.9 L2 494.44 L0 493.28 L0 493.75 ZM3.71 495.91 L5.7 497.07 L5.7 496.61
								 L3.71 495.45 L3.71 495.91 ZM7.41 498.08 L16.82 503.57 L16.82 503.11 L7.41 497.62 L7.41 498.08 ZM18.53
								 504.58 L20.52 505.74 L20.52 505.27 L18.53 504.12 L18.53 504.58 ZM1.99 494.44 L1.99 494.9 L3.66 493.84
								 L3.66 493.38 L1.99 494.44 ZM5.7 496.6 L5.7 497.07 L7.36 496 L7.36 495.54 L5.7 496.6 ZM16.82 503.11
								 L16.82 503.57 L18.48 502.51 L18.48 502.05 L16.82 503.11 ZM20.52 505.27 L20.52 505.73 L22.19 504.67
								 L22.19 504.21 L20.52 505.27 ZM22.24 506.75 L24.23 507.9 L24.23 507.44 L22.24 506.29 L22.24 506.75
								 ZM24.23 507.44 L24.23 507.9 L25.89 506.84 L25.89 506.38 L24.23 507.44 Z" class="st17"/>
				</g>
			</g>
			<g id="shape1100-162" v:mID="1100" v:groupContext="shape">
				<title>Sheet.1100</title>
				<path d="M0 491.6 L28.35 507.9 L28.35 505.78 L0 489.48 L0 491.6 Z" class="st13"/>
			</g>
			<g id="shape1101-165" v:mID="1101" v:groupContext="shape">
				<title>Sheet.1101</title>
				<path d="M0 489.48 L12.05 480.83 L40.75 497.27 L40.75 500.81 L28.35 507.9 L0 491.6 L0 489.48" class="st14"/>
			</g>
			<g id="shape1102-168" v:mID="1102" v:groupContext="shape" transform="translate(33.0236,-22.8317)">
				<title>Sheet.1102</title>
				<path d="M0.61 493.27 L24.38 507.07 L24.38 480.13 L0.61 466.44 L0.61 493.27 Z" class="st18"/>
				<path d="M0.61 493.27 L24.38 507.07 L24.38 480.13 L0.61 466.44 L0.61 493.27" class="st19"/>
				<path d="M24.38 507.07 L24.38 508.32" class="st19"/>
				<path d="M0.61 466.44 L0 466.1" class="st19"/>
			</g>
		</g>
		<g id="shape1103-174" v:mID="1103" v:groupContext="shape" transform="translate(257.954,-102.594)">
			<title>Rectangle.1103</title>
			<desc>Query REST</desc>
			<v:userDefs>
				<v:ud v:nameU="visVersion" v:val="VT0(15):26"/>
			</v:userDefs>
			<v:textBlock v:margins="rect(4,4,4,4)" v:tabSpace="42.5197"/>
			<v:textRect cx="88.1229" cy="482.538" width="176.25" height="50.727"/>
			<rect x="0" y="457.175" width="176.246" height="50.727" class="st6"/>
			<text x="31.71" y="489.74" class="st2" v:langID="1033"><v:paragraph v:horizAlign="1"/><v:tabList/>Query REST</text>		</g>
		<g id="shape1104-177" v:mID="1104" v:groupContext="shape" transform="translate(497.208,-102.594)">
			<title>Rectangle.1104</title>
			<desc>Custom APIs</desc>
			<v:userDefs>
				<v:ud v:nameU="visVersion" v:val="VT0(15):26"/>
			</v:userDefs>
			<v:textBlock v:margins="rect(4,4,4,4)" v:tabSpace="42.5197"/>
			<v:textRect cx="88.1229" cy="482.538" width="176.25" height="50.727"/>
			<rect x="0" y="457.175" width="176.246" height="50.727" class="st6"/>
			<text x="27.22" y="489.74" class="st2" v:langID="1033"><v:paragraph v:horizAlign="1"/><v:tabList/>Custom APIs</text>		</g>
		<g id="shape1105-180" v:mID="1105" v:groupContext="shape" transform="translate(526.139,-0.25)">
			<title>Rectangle.1105</title>
			<desc>Platform Other/Custom</desc>
			<v:userDefs>
				<v:ud v:nameU="visVersion" v:val="VT0(15):26"/>
			</v:userDefs>
			<v:textBlock v:margins="rect(4,4,4,4)" v:tabSpace="42.5197"/>
			<v:textRect cx="82.6564" cy="467.36" width="165.32" height="81.0841"/>
			<rect x="0" y="426.818" width="165.313" height="81.0841" class="st7"/>
			<text x="57.88" y="457.16" class="st8" v:langID="1033"><v:paragraph v:horizAlign="1"/><v:tabList/>Platform<v:lf/><tspan
						x="12.27" dy="1.075em" class="st9">Other/Custom</tspan></text>		</g>
		<g id="group1106-184" transform="translate(444.401,-333.321)" v:mID="1106" v:groupContext="group">
			<v:userDefs>
				<v:ud v:nameU="SkinColor" v:prompt="" v:val="VT5(#da8c36)"/>
				<v:ud v:nameU="visVersion" v:prompt="" v:val="VT0(15):26"/>
			</v:userDefs>
			<title>Content management server.1106</title>
			<g id="shape1107-185" v:mID="1107" v:groupContext="shape" transform="translate(6.51969,-11.8845)">
				<title>Sheet.1107</title>
				<path d="M6.31 465.89 L0 462.27 L0 482.03 L0.93 482.58 L0.93 486.74 L2.91 488 L6.64 485.9 L30.79 499.97 L30.79 504.05
							 L32.77 505.3 L36.41 503.25 L44.39 507.9 L44.39 501.37 L72 485.43 L72 465.44 L39.2 446.63 L6.31 465.15
							 L6.31 465.89 Z" class="st26"/>
			</g>
			<g id="shape1108-187" v:mID="1108" v:groupContext="shape" transform="translate(12.8338,-34.6186)">
				<title>Sheet.1108</title>
				<path d="M32.89 469.37 L65.69 488.18 L32.55 507.9 L0 489.37 L0 487.89 L32.89 469.37 Z" class="st27"/>
			</g>
			<g id="shape1109-191" v:mID="1109" v:groupContext="shape" transform="translate(44.5607,-18.4188)">
				<title>Sheet.1109</title>
				<path d="M33.96 471.98 L0 491.23 L6.35 507.9 L33.96 491.96 L33.96 471.98 Z" class="st28"/>
			</g>
			<g id="shape1110-195" v:mID="1110" v:groupContext="shape" transform="translate(6.51969,-11.8845)">
				<title>Sheet.1110</title>
				<path d="M44.39 507.9 L0 482.03 L0 462.27 L44.39 487.71 L44.39 507.9 Z" class="st29"/>
			</g>
			<g id="shape1111-203" v:mID="1111" v:groupContext="shape" transform="translate(8.16513,-50.6396)">
				<title>Sheet.1111</title>
				<path d="M2.25 505.97 A1.30526 1.30526 -180 0 0 0.77 504.99 A1.30943 1.30943 -180 0 0 0.27 506.72 A1.30342 1.30342
							 -180 0 0 1.75 507.7 A1.3082 1.3082 -180 0 0 2.25 505.97 Z" class="st30"/>
			</g>
			<g id="shape1112-207" v:mID="1112" v:groupContext="shape" transform="translate(13.7503,-41.3197)">
				<title>Sheet.1112</title>
				<path d="M6.43 502.39 A3.72217 3.72217 -180 0 0 2.21 499.58 A3.73404 3.73404 -180 0 0 0.77 504.52 A3.72292 3.72292
							 -180 0 0 4.99 507.32 A3.73751 3.73751 -180 0 0 6.43 502.39 Z" class="st30"/>
			</g>
			<g id="shape1113-210" v:mID="1113" v:groupContext="shape" transform="translate(13.7503,-31.9849)">
				<title>Sheet.1113</title>
				<path d="M6.43 502.39 A3.72217 3.72217 -180 0 0 2.21 499.58 A3.73404 3.73404 -180 0 0 0.77 504.52 A3.72292 3.72292
							 -180 0 0 4.99 507.32 A3.73751 3.73751 -180 0 0 6.43 502.39 Z" class="st30"/>
			</g>
			<g id="shape1114-213" v:mID="1114" v:groupContext="shape" transform="translate(15.549,-43.7207)">
				<title>Sheet.1114</title>
				<path d="M3.21 505.14 A1.86004 1.86004 -180 0 0 1.1 503.74 A1.86694 1.86694 -180 0 0 0.38 506.21 A1.86041 1.86041
							 -180 0 0 2.5 507.61 A1.86777 1.86777 -180 0 0 3.21 505.14 Z" class="st31"/>
			</g>
			<g id="shape1115-217" v:mID="1115" v:groupContext="shape" transform="translate(15.549,-34.386)">
				<title>Sheet.1115</title>
				<path d="M3.21 505.14 A1.86004 1.86004 -180 0 0 1.1 503.74 A1.86787 1.86787 -180 0 0 0.38 506.21 A1.86041 1.86041
							 -180 0 0 2.5 507.61 A1.86777 1.86777 -180 0 0 3.21 505.14 Z" class="st31"/>
			</g>
			<g id="shape1116-220" v:mID="1116" v:groupContext="shape" transform="translate(22.0631,-28.6877)">
				<title>Sheet.1116</title>
				<path d="M0 505.95 L0.1 490.04 L3.65 491.99 L3.55 507.9 L0 505.95 Z" class="st32"/>
			</g>
			<g id="shape1117-224" v:mID="1117" v:groupContext="shape" transform="translate(26.8853,-25.8259)">
				<title>Sheet.1117</title>
				<path d="M0 505.95 L0.1 490.04 L3.65 491.99 L3.55 507.9 L0 505.95 Z" class="st32"/>
			</g>
			<g id="shape1118-227" v:mID="1118" v:groupContext="shape" transform="translate(31.7065,-22.963)">
				<title>Sheet.1118</title>
				<path d="M0 505.95 L0.1 490.04 L3.65 491.99 L3.55 507.9 L0 505.95 Z" class="st32"/>
			</g>
			<g id="shape1119-230" v:mID="1119" v:groupContext="shape" transform="translate(36.5287,-20.1012)">
				<title>Sheet.1119</title>
				<path d="M0 505.95 L0.1 490.04 L3.65 491.99 L3.55 507.9 L0 505.95 Z" class="st32"/>
			</g>
			<g id="shape1120-233" v:mID="1120" v:groupContext="shape" transform="translate(22.9657,-31.1395)">
				<title>Sheet.1120</title>
				<path d="M1.7 507.29 a0.774788 0.774788 0 0 1 -0.848613 0.616116 A1.27344 1.27344 0 0 1 0 506.76 L0 495.84 a0.773543
							 0.773543 0 0 1 0.847556 -0.616116 A1.27281 1.27281 0 0 1 1.7 496.36 L1.7 507.29 Z" class="st33"/>
			</g>
			<g id="shape1121-237" v:mID="1121" v:groupContext="shape" transform="translate(27.7868,-28.2777)">
				<title>Sheet.1121</title>
				<path d="M1.7 507.29 a0.774788 0.774788 0 0 1 -0.848613 0.616116 A1.27344 1.27344 0 0 1 0 506.76 L0 495.84 a0.773543
							 0.773543 0 0 1 0.847556 -0.616116 A1.27281 1.27281 0 0 1 1.7 496.36 L1.7 507.29 Z" class="st33"/>
			</g>
			<g id="shape1122-240" v:mID="1122" v:groupContext="shape" transform="translate(32.609,-25.4148)">
				<title>Sheet.1122</title>
				<path d="M1.7 507.29 a0.774788 0.774788 0 0 1 -0.848613 0.616116 A1.27344 1.27344 0 0 1 0 506.76 L0 495.84 a0.773543
							 0.773543 0 0 1 0.847556 -0.616116 A1.27281 1.27281 0 0 1 1.7 496.36 L1.7 507.29 Z" class="st33"/>
			</g>
			<g id="shape1123-243" v:mID="1123" v:groupContext="shape" transform="translate(37.4301,-22.553)">
				<title>Sheet.1123</title>
				<path d="M1.7 507.29 a0.775394 0.775394 0 0 1 -0.84967 0.616116 A1.27409 1.27409 0 0 1 0 506.76 L0 495.84 a0.772939
							 0.772939 0 0 1 0.846499 -0.616116 A1.27382 1.27382 0 0 1 1.7 496.36 L1.7 507.29 Z" class="st33"/>
			</g>
			<g id="shape1124-246" v:mID="1124" v:groupContext="shape" transform="translate(22.0631,-30.6386)">
				<title>Sheet.1124</title>
				<path d="M0 507.9 L0.1 491.99 L3.65 493.94 L0 507.9 Z" class="st34"/>
				<path d="M0 507.9 L0.1 491.99 L3.65 493.94" class="st35"/>
			</g>
			<g id="shape1125-249" v:mID="1125" v:groupContext="shape" transform="translate(26.8853,-27.7768)">
				<title>Sheet.1125</title>
				<path d="M0 507.9 L0.1 491.99 L3.65 493.94 L0 507.9 Z" class="st34"/>
				<path d="M0 507.9 L0.1 491.99 L3.65 493.94" class="st35"/>
			</g>
			<g id="shape1126-252" v:mID="1126" v:groupContext="shape" transform="translate(31.7065,-24.9139)">
				<title>Sheet.1126</title>
				<path d="M0 507.9 L0.1 491.99 L3.65 493.94 L0 507.9 Z" class="st34"/>
				<path d="M0 507.9 L0.1 491.99 L3.65 493.94" class="st35"/>
			</g>
			<g id="shape1127-255" v:mID="1127" v:groupContext="shape" transform="translate(36.5287,-22.052)">
				<title>Sheet.1127</title>
				<path d="M0 507.9 L0.1 491.99 L3.65 493.94 L0 507.9 Z" class="st34"/>
				<path d="M0 507.9 L0.1 491.99 L3.65 493.94" class="st35"/>
			</g>
			<g id="shape1128-258" v:mID="1128" v:groupContext="shape" transform="translate(22.0631,-20.1012)">
				<title>Sheet.1128</title>
				<path d="M18.12 491.99 L18.02 507.9 L14.47 505.95 L18.12 491.99 ZM13.3 489.13 L13.2 505.04 L9.64 503.09 L13.3 489.13
							 ZM8.48 486.27 L8.38 502.18 L4.82 500.23 L8.48 486.27 ZM3.65 483.4 L3.55 499.32 L0 497.36 L3.65 483.4
							 Z" class="st34"/>
				<path d="M18.12 491.99 L18.02 507.9 L14.47 505.95M13.3 489.13 L13.2 505.04 L9.64 503.09M8.48 486.27 L8.38 502.18
							 L4.82 500.23M3.65 483.4 L3.55 499.32 L0 497.36" class="st36"/>
			</g>
			<g id="shape1129-261" v:mID="1129" v:groupContext="shape" transform="translate(10.953,-34.6967)">
				<title>Sheet.1129</title>
				<path d="M0 506.51 L1.26 505.65 L2.84 506.38 L0.07 507.9 L0 506.51 Z" class="st37"/>
			</g>
			<g id="shape1130-265" v:mID="1130" v:groupContext="shape" transform="translate(40.8077,-17.3915)">
				<title>Sheet.1130</title>
				<path d="M0 506.51 L1.26 505.65 L2.84 506.38 L0.07 507.9 L0 506.51 Z" class="st37"/>
			</g>
			<g id="shape1131-268" v:mID="1131" v:groupContext="shape" transform="translate(9.43435,-31.7905)">
				<title>Sheet.1131</title>
				<path d="M4.23 505.52 L0 507.9 L0 489.94 L4.23 487.43 L4.23 489.67 L1.59 491.14 L1.59 505 L4.36 503.48 L4.23 505.52
							 Z" class="st28"/>
			</g>
			<g id="shape1132-271" v:mID="1132" v:groupContext="shape" transform="translate(39.289,-14.4853)">
				<title>Sheet.1132</title>
				<path d="M4.23 505.52 L0 507.9 L0 489.94 L4.23 487.43 L4.23 489.67 L1.59 491.14 L1.59 505 L4.36 503.48 L4.23 505.52
							 Z" class="st28"/>
			</g>
			<g id="shape1133-274" v:mID="1133" v:groupContext="shape" transform="translate(7.45284,-31.7905)">
				<title>Sheet.1133</title>
				<path d="M1.98 489.94 L6.21 487.43 L4.23 486.17 L0 488.68 L0 506.65 L1.98 507.9 L1.98 489.94 Z" class="st38"/>
			</g>
			<g id="shape1134-278" v:mID="1134" v:groupContext="shape" transform="translate(37.3075,-14.4853)">
				<title>Sheet.1134</title>
				<path d="M1.98 489.94 L6.21 487.43 L4.23 486.17 L0 488.68 L0 506.65 L1.98 507.9 L1.98 489.94 Z" class="st38"/>
			</g>
			<g id="shape1135-281" v:mID="1135" v:groupContext="shape" transform="translate(7.45284,-14.4864)">
				<title>Sheet.1135</title>
				<path d="M34.61 502.75 L33.42 503.56 L33.42 491.14 L36.06 489.67 L36.06 487.43 L34.08 486.17 L29.85 488.68 L29.85
							 506.65 L31.84 507.9 L36.06 505.52 L36.2 503.48 L34.61 502.75 ZM4.76 485.45 L3.57 486.26 L3.57 473.83
							 L6.21 472.37 L6.21 470.12 L4.23 468.87 L0 471.38 L0 489.34 L1.98 490.6 L6.21 488.22 L6.34 486.17 L4.76
							 485.45 Z" class="st39"/>
			</g>
			<g id="shape1136-283" v:mID="1136" v:groupContext="shape" transform="translate(46.3421,-28.4468)">
				<title>Sheet.1136</title>
				<path d="M2.25 505.97 A1.30526 1.30526 -180 0 0 0.77 504.99 A1.30943 1.30943 -180 0 0 0.27 506.72 A1.30342 1.30342
							 -180 0 0 1.75 507.7 A1.3082 1.3082 -180 0 0 2.25 505.97 Z" class="st30"/>
			</g>
			<g id="shape1137-286" v:mID="1137" v:groupContext="shape" transform="translate(46.3421,-15.7651)">
				<title>Sheet.1137</title>
				<path d="M2.25 505.97 A1.30526 1.30526 -180 0 0 0.77 504.99 A1.30943 1.30943 -180 0 0 0.27 506.72 A1.30342 1.30342
							 -180 0 0 1.75 507.7 A1.3082 1.3082 -180 0 0 2.25 505.97 Z" class="st30"/>
			</g>
			<g id="shape1138-289" v:mID="1138" v:groupContext="shape" transform="translate(6.51969,-11.8845)">
				<title>Sheet.1138</title>
				<path d="M72 485.43 L72 465.44 L39.2 446.63 L6.31 465.15 L6.31 465.94 L0 462.27 L0 482.03 L0.93 482.58 L0.93 486.74
							 L2.91 488 L6.64 485.9 L30.79 499.97 L30.79 504.05 L32.77 505.3 L36.41 503.25 L44.39 507.9 L44.39 501.37
							 L72 485.43 Z" class="st39"/>
			</g>
			<g id="shape1139-291" v:mID="1139" v:groupContext="shape" transform="translate(54.7257,-16.4007)">
				<title>Sheet.1139</title>
				<ellipse cx="9.98901" cy="497.913" rx="9.98901" ry="9.98901" class="st40"/>
			</g>
			<g id="shape1140-295" v:mID="1140" v:groupContext="shape" transform="translate(54.7257,-16.4007)">
				<title>Sheet.1140</title>
				<path d="M7.57 507.57 A41.1972 16.8804 158.84 0 1 11.97 490.59 A44.304 20.0495 28.3 0 1 8.42 507.78" class="st41"/>
				<path d="M1.69 503.24 A9.13066 9.13066 0 0 1 12.02 490.59 A9.09922 9.09922 0 0 1 17.68 504.23" class="st41"/>
				<path d="M15.32 489.26 A5.05187 3.5122 -156.58 0 0 11.98 490.6 A10.8567 10.8567 -180 0 0 8.65 487.96" class="st41"/>
				<path d="M9.63 490.27 A2.282 2.00063 -163.53 1 1 14.01 491.57 A2.282 2.00063 -163.53 1 1 9.63 490.27" class="st41"/>
				<path d="M9.67 496.78 A4.19852 5.06205 113.11 1 1 12.97 489.06 A4.19852 5.06205 113.11 1 1 9.67 496.78"
						class="st41"/>
				<path d="M8.98 502.72 A7.49092 8.89205 102.92 1 1 12.33 488.11 A7.49092 8.89205 102.92 1 1 8.98 502.72"
						class="st41"/>
			</g>
			<g id="shape1141-305" v:mID="1141" v:groupContext="shape" transform="translate(54.7257,-16.4007)">
				<title>Sheet.1141</title>
				<ellipse cx="9.98901" cy="497.913" rx="9.98901" ry="9.98901" class="st42"/>
				<ellipse cx="9.98901" cy="497.913" rx="9.98901" ry="9.98901" class="st43"/>
			</g>
		</g>
		<g id="group1269-308" transform="translate(585.244,-333.321)" v:mID="1269" v:groupContext="group">
			<v:userDefs>
				<v:ud v:nameU="SkinColor" v:prompt="" v:val="VT5(#da8c36)"/>
				<v:ud v:nameU="visVersion" v:prompt="" v:val="VT0(15):26"/>
			</v:userDefs>
			<title>Real-time communications server.1269</title>
			<g id="shape1270-309" v:mID="1270" v:groupContext="shape" transform="translate(6.51969,-11.8845)">
				<title>Sheet.1270</title>
				<path d="M6.31 465.89 L0 462.27 L0 482.03 L0.93 482.58 L0.93 486.74 L2.91 488 L6.64 485.9 L30.79 499.97 L30.79 504.05
							 L32.77 505.3 L36.41 503.25 L44.39 507.9 L44.39 501.37 L72 485.43 L72 465.44 L39.2 446.63 L6.31 465.15
							 L6.31 465.89 Z" class="st26"/>
			</g>
			<g id="shape1271-311" v:mID="1271" v:groupContext="shape" transform="translate(12.8338,-34.6186)">
				<title>Sheet.1271</title>
				<path d="M32.89 469.37 L65.69 488.18 L32.55 507.9 L0 489.37 L0 487.89 L32.89 469.37 Z" class="st27"/>
			</g>
			<g id="shape1272-314" v:mID="1272" v:groupContext="shape" transform="translate(44.5607,-18.4188)">
				<title>Sheet.1272</title>
				<path d="M33.96 471.98 L0 491.23 L6.35 507.9 L33.96 491.96 L33.96 471.98 Z" class="st28"/>
			</g>
			<g id="shape1273-317" v:mID="1273" v:groupContext="shape" transform="translate(6.51969,-11.8845)">
				<title>Sheet.1273</title>
				<path d="M44.39 507.9 L0 482.03 L0 462.27 L44.39 487.71 L44.39 507.9 Z" class="st29"/>
			</g>
			<g id="shape1274-320" v:mID="1274" v:groupContext="shape" transform="translate(8.16513,-50.6396)">
				<title>Sheet.1274</title>
				<path d="M2.25 505.97 A1.30526 1.30526 -180 0 0 0.77 504.99 A1.30943 1.30943 -180 0 0 0.27 506.72 A1.30342 1.30342
							 -180 0 0 1.75 507.7 A1.3082 1.3082 -180 0 0 2.25 505.97 Z" class="st30"/>
			</g>
			<g id="shape1275-323" v:mID="1275" v:groupContext="shape" transform="translate(13.7503,-41.3197)">
				<title>Sheet.1275</title>
				<path d="M6.43 502.39 A3.72217 3.72217 -180 0 0 2.21 499.58 A3.73404 3.73404 -180 0 0 0.77 504.52 A3.72292 3.72292
							 -180 0 0 4.99 507.32 A3.73751 3.73751 -180 0 0 6.43 502.39 Z" class="st30"/>
			</g>
			<g id="shape1276-326" v:mID="1276" v:groupContext="shape" transform="translate(13.7503,-31.9849)">
				<title>Sheet.1276</title>
				<path d="M6.43 502.39 A3.72217 3.72217 -180 0 0 2.21 499.58 A3.73404 3.73404 -180 0 0 0.77 504.52 A3.72292 3.72292
							 -180 0 0 4.99 507.32 A3.73751 3.73751 -180 0 0 6.43 502.39 Z" class="st30"/>
			</g>
			<g id="shape1277-329" v:mID="1277" v:groupContext="shape" transform="translate(15.549,-43.7207)">
				<title>Sheet.1277</title>
				<path d="M3.21 505.14 A1.86004 1.86004 -180 0 0 1.1 503.74 A1.86694 1.86694 -180 0 0 0.38 506.21 A1.86041 1.86041
							 -180 0 0 2.5 507.61 A1.86777 1.86777 -180 0 0 3.21 505.14 Z" class="st31"/>
			</g>
			<g id="shape1278-332" v:mID="1278" v:groupContext="shape" transform="translate(15.549,-34.386)">
				<title>Sheet.1278</title>
				<path d="M3.21 505.14 A1.86004 1.86004 -180 0 0 1.1 503.74 A1.86787 1.86787 -180 0 0 0.38 506.21 A1.86041 1.86041
							 -180 0 0 2.5 507.61 A1.86777 1.86777 -180 0 0 3.21 505.14 Z" class="st31"/>
			</g>
			<g id="shape1279-335" v:mID="1279" v:groupContext="shape" transform="translate(22.0631,-28.6877)">
				<title>Sheet.1279</title>
				<path d="M0 505.95 L0.1 490.04 L3.65 491.99 L3.55 507.9 L0 505.95 Z" class="st32"/>
			</g>
			<g id="shape1280-338" v:mID="1280" v:groupContext="shape" transform="translate(26.8853,-25.8259)">
				<title>Sheet.1280</title>
				<path d="M0 505.95 L0.1 490.04 L3.65 491.99 L3.55 507.9 L0 505.95 Z" class="st32"/>
			</g>
			<g id="shape1281-341" v:mID="1281" v:groupContext="shape" transform="translate(31.7065,-22.963)">
				<title>Sheet.1281</title>
				<path d="M0 505.95 L0.1 490.04 L3.65 491.99 L3.55 507.9 L0 505.95 Z" class="st32"/>
			</g>
			<g id="shape1282-344" v:mID="1282" v:groupContext="shape" transform="translate(36.5287,-20.1012)">
				<title>Sheet.1282</title>
				<path d="M0 505.95 L0.1 490.04 L3.65 491.99 L3.55 507.9 L0 505.95 Z" class="st32"/>
			</g>
			<g id="shape1283-347" v:mID="1283" v:groupContext="shape" transform="translate(22.9657,-31.1395)">
				<title>Sheet.1283</title>
				<path d="M1.7 507.29 a0.774788 0.774788 0 0 1 -0.848613 0.616116 A1.27344 1.27344 0 0 1 0 506.76 L0 495.84 a0.773543
							 0.773543 0 0 1 0.847556 -0.616116 A1.27281 1.27281 0 0 1 1.7 496.36 L1.7 507.29 Z" class="st33"/>
			</g>
			<g id="shape1284-350" v:mID="1284" v:groupContext="shape" transform="translate(27.7868,-28.2777)">
				<title>Sheet.1284</title>
				<path d="M1.7 507.29 a0.774788 0.774788 0 0 1 -0.848613 0.616116 A1.27344 1.27344 0 0 1 0 506.76 L0 495.84 a0.773543
							 0.773543 0 0 1 0.847556 -0.616116 A1.27281 1.27281 0 0 1 1.7 496.36 L1.7 507.29 Z" class="st33"/>
			</g>
			<g id="shape1285-353" v:mID="1285" v:groupContext="shape" transform="translate(32.609,-25.4148)">
				<title>Sheet.1285</title>
				<path d="M1.7 507.29 a0.774788 0.774788 0 0 1 -0.848613 0.616116 A1.27344 1.27344 0 0 1 0 506.76 L0 495.84 a0.773543
							 0.773543 0 0 1 0.847556 -0.616116 A1.27281 1.27281 0 0 1 1.7 496.36 L1.7 507.29 Z" class="st33"/>
			</g>
			<g id="shape1286-356" v:mID="1286" v:groupContext="shape" transform="translate(37.4301,-22.553)">
				<title>Sheet.1286</title>
				<path d="M1.7 507.29 a0.775394 0.775394 0 0 1 -0.84967 0.616116 A1.27409 1.27409 0 0 1 0 506.76 L0 495.84 a0.772939
							 0.772939 0 0 1 0.846499 -0.616116 A1.27382 1.27382 0 0 1 1.7 496.36 L1.7 507.29 Z" class="st33"/>
			</g>
			<g id="shape1287-359" v:mID="1287" v:groupContext="shape" transform="translate(22.0631,-30.6386)">
				<title>Sheet.1287</title>
				<path d="M0 507.9 L0.1 491.99 L3.65 493.94 L0 507.9 Z" class="st34"/>
				<path d="M0 507.9 L0.1 491.99 L3.65 493.94" class="st35"/>
			</g>
			<g id="shape1288-362" v:mID="1288" v:groupContext="shape" transform="translate(26.8853,-27.7768)">
				<title>Sheet.1288</title>
				<path d="M0 507.9 L0.1 491.99 L3.65 493.94 L0 507.9 Z" class="st34"/>
				<path d="M0 507.9 L0.1 491.99 L3.65 493.94" class="st35"/>
			</g>
			<g id="shape1289-365" v:mID="1289" v:groupContext="shape" transform="translate(31.7065,-24.9139)">
				<title>Sheet.1289</title>
				<path d="M0 507.9 L0.1 491.99 L3.65 493.94 L0 507.9 Z" class="st34"/>
				<path d="M0 507.9 L0.1 491.99 L3.65 493.94" class="st35"/>
			</g>
			<g id="shape1290-368" v:mID="1290" v:groupContext="shape" transform="translate(36.5287,-22.052)">
				<title>Sheet.1290</title>
				<path d="M0 507.9 L0.1 491.99 L3.65 493.94 L0 507.9 Z" class="st34"/>
				<path d="M0 507.9 L0.1 491.99 L3.65 493.94" class="st35"/>
			</g>
			<g id="shape1291-371" v:mID="1291" v:groupContext="shape" transform="translate(22.0631,-20.1012)">
				<title>Sheet.1291</title>
				<path d="M18.12 491.99 L18.02 507.9 L14.47 505.95 L18.12 491.99 ZM13.3 489.13 L13.2 505.04 L9.64 503.09 L13.3 489.13
							 ZM8.48 486.27 L8.38 502.18 L4.82 500.23 L8.48 486.27 ZM3.65 483.4 L3.55 499.32 L0 497.36 L3.65 483.4
							 Z" class="st34"/>
				<path d="M18.12 491.99 L18.02 507.9 L14.47 505.95M13.3 489.13 L13.2 505.04 L9.64 503.09M8.48 486.27 L8.38 502.18
							 L4.82 500.23M3.65 483.4 L3.55 499.32 L0 497.36" class="st36"/>
			</g>
			<g id="shape1292-374" v:mID="1292" v:groupContext="shape" transform="translate(10.953,-34.6967)">
				<title>Sheet.1292</title>
				<path d="M0 506.51 L1.26 505.65 L2.84 506.38 L0.07 507.9 L0 506.51 Z" class="st37"/>
			</g>
			<g id="shape1293-377" v:mID="1293" v:groupContext="shape" transform="translate(40.8077,-17.3915)">
				<title>Sheet.1293</title>
				<path d="M0 506.51 L1.26 505.65 L2.84 506.38 L0.07 507.9 L0 506.51 Z" class="st37"/>
			</g>
			<g id="shape1294-380" v:mID="1294" v:groupContext="shape" transform="translate(9.43435,-31.7905)">
				<title>Sheet.1294</title>
				<path d="M4.23 505.52 L0 507.9 L0 489.94 L4.23 487.43 L4.23 489.67 L1.59 491.14 L1.59 505 L4.36 503.48 L4.23 505.52
							 Z" class="st28"/>
			</g>
			<g id="shape1295-383" v:mID="1295" v:groupContext="shape" transform="translate(39.289,-14.4853)">
				<title>Sheet.1295</title>
				<path d="M4.23 505.52 L0 507.9 L0 489.94 L4.23 487.43 L4.23 489.67 L1.59 491.14 L1.59 505 L4.36 503.48 L4.23 505.52
							 Z" class="st28"/>
			</g>
			<g id="shape1296-386" v:mID="1296" v:groupContext="shape" transform="translate(7.45284,-31.7905)">
				<title>Sheet.1296</title>
				<path d="M1.98 489.94 L6.21 487.43 L4.23 486.17 L0 488.68 L0 506.65 L1.98 507.9 L1.98 489.94 Z" class="st38"/>
			</g>
			<g id="shape1297-389" v:mID="1297" v:groupContext="shape" transform="translate(37.3075,-14.4853)">
				<title>Sheet.1297</title>
				<path d="M1.98 489.94 L6.21 487.43 L4.23 486.17 L0 488.68 L0 506.65 L1.98 507.9 L1.98 489.94 Z" class="st38"/>
			</g>
			<g id="shape1298-392" v:mID="1298" v:groupContext="shape" transform="translate(7.45284,-14.4864)">
				<title>Sheet.1298</title>
				<path d="M34.61 502.75 L33.42 503.56 L33.42 491.14 L36.06 489.67 L36.06 487.43 L34.08 486.17 L29.85 488.68 L29.85
							 506.65 L31.84 507.9 L36.06 505.52 L36.2 503.48 L34.61 502.75 ZM4.76 485.45 L3.57 486.26 L3.57 473.83
							 L6.21 472.37 L6.21 470.12 L4.23 468.87 L0 471.38 L0 489.34 L1.98 490.6 L6.21 488.22 L6.34 486.17 L4.76
							 485.45 Z" class="st39"/>
			</g>
			<g id="shape1299-394" v:mID="1299" v:groupContext="shape" transform="translate(46.3421,-28.4468)">
				<title>Sheet.1299</title>
				<path d="M2.25 505.97 A1.30526 1.30526 -180 0 0 0.77 504.99 A1.30943 1.30943 -180 0 0 0.27 506.72 A1.30342 1.30342
							 -180 0 0 1.75 507.7 A1.3082 1.3082 -180 0 0 2.25 505.97 Z" class="st30"/>
			</g>
			<g id="shape1300-397" v:mID="1300" v:groupContext="shape" transform="translate(46.3421,-15.7651)">
				<title>Sheet.1300</title>
				<path d="M2.25 505.97 A1.30526 1.30526 -180 0 0 0.77 504.99 A1.30943 1.30943 -180 0 0 0.27 506.72 A1.30342 1.30342
							 -180 0 0 1.75 507.7 A1.3082 1.3082 -180 0 0 2.25 505.97 Z" class="st30"/>
			</g>
			<g id="shape1301-400" v:mID="1301" v:groupContext="shape" transform="translate(6.51969,-11.8845)">
				<title>Sheet.1301</title>
				<path d="M72 485.43 L72 465.44 L39.2 446.63 L6.31 465.15 L6.31 465.94 L0 462.27 L0 482.03 L0.93 482.58 L0.93 486.74
							 L2.91 488 L6.64 485.9 L30.79 499.97 L30.79 504.05 L32.77 505.3 L36.41 503.25 L44.39 507.9 L44.39 501.37
							 L72 485.43 Z" class="st39"/>
			</g>
			<g id="shape1302-402" v:mID="1302" v:groupContext="shape" transform="translate(57.9126,-17.4595)">
				<title>Sheet.1302</title>
				<path d="M2.2 506.34 A14.5014 13.9671 -180 0 0 9.04 507.9 A4.68687 4.51419 0 0 0 11.24 507.34 a0.759874 0.731877
							 -180 0 0 0.882686 0.139783 A3.14103 3.0253 -180 0 0 13.6 505.99 L13.6 501.73 A5.98363 5.76317 -180 0
							 0 9.88 496.7 L3.73 496.27 A6.10387 5.87898 0 0 0 0 501.42 L0.02 503.83 A2.08011 2.00347 -180 0 0 0.8
							 505.42 a0.801043 0.77153 -180 0 0 0.889213 0.143238 A1.07196 1.03246 -180 0 0 2.2 506.34 Z"
						class="st44"/>
				<path d="M2.2 506.34 A14.5014 13.9671 -180 0 0 9.04 507.9 A4.68687 4.51419 0 0 0 11.24 507.34 a0.759874 0.731877
							 -180 0 0 0.882686 0.139783 A3.14103 3.0253 -180 0 0 13.6 505.99 L13.6 501.73 A5.98363 5.76317 -180 0
							 0 9.88 496.7M3.73 496.27 A6.10387 5.87898 0 0 0 0 501.42 L0.02 503.83 A2.08011 2.00347 -180 0 0 0.8
							 505.42 a0.801043 0.77153 -180 0 0 0.889213 0.143238 A1.07196 1.03246 -180 0 0 2.2 506.34" class="st45"/>
			</g>
			<g id="shape1303-406" v:mID="1303" v:groupContext="shape" transform="translate(60.8465,-27.5244)">
				<title>Sheet.1303</title>
				<ellipse cx="4.0467" cy="504.004" rx="4.0467" ry="3.89761" class="st46"/>
			</g>
			<g id="shape1304-409" v:mID="1304" v:groupContext="shape" transform="translate(57.9126,-17.4595)">
				<title>Sheet.1304</title>
				<path d="M3.73 496.27 A6.22757 5.99812 0 0 0 -0 501.42 L0.02 503.83 A2.08011 2.00347 -180 0 0 0.8 505.42 a0.801043
							 0.77153 -180 0 0 0.889213 0.143238 A1.07196 1.03246 -180 0 0 2.2 506.34 A14.5014 13.9671 -180 0 0 9.04
							 507.9 A4.68687 4.51419 0 0 0 11.24 507.34 a0.759874 0.731877 -180 0 0 0.882686 0.139783 A3.14103 3.0253
							 -180 0 0 13.6 505.99 L13.6 502.13 A5.92396 5.7057 -180 0 0 9.88 496.7 L9.84 496.69 A4.0483 3.89914 -180
							 1 0 3.73 496.27" class="st43"/>
			</g>
			<g id="shape1305-412" v:mID="1305" v:groupContext="shape" transform="translate(59.4902,-18.0247)">
				<title>Sheet.1305</title>
				<path d="M0.11 506.12 A53.3709 25.7457 8.9 0 1 1.36 498.76" class="st41"/>
				<path d="M9.67 507.9 A55.4171 26.6968 -4 0 0 9.08 500.1" class="st41"/>
			</g>
		</g>
		<g id="shape1306-417" v:mID="1306" v:groupContext="shape" transform="translate(586.104,175.923) rotate(90)">
			<title>Sheet.1306</title>
			<desc>with Context</desc>
			<v:textBlock v:margins="rect(4,4,4,4)" v:tabSpace="42.5197"/>
			<v:textRect cx="40.8413" cy="508.327" width="142.59" height="17.53" transform="rotate(-90)"/>
			<path d="M0 507.9 L84.3 507.9" class="st47"/>
			<rect v:rectContext="textBkgnd" x="-546.565" y="12.0416" width="76.4761" height="57.5997" transform="rotate(-90)"
					class="st49"/>
			<text x="-529.98" y="33.64" transform="rotate(-90)" class="st50" v:langID="1033"><v:paragraph v:horizAlign="1"/><v:tabList/>with <v:lf/><tspan
						x="-546.56" dy="1.2em" class="st3">Context</tspan></text>		</g>
		<g id="shape1307-426" v:mID="1307" v:groupContext="shape" transform="translate(717.915,175.923) rotate(90)">
			<title>Sheet.1307</title>
			<desc>Anonymous</desc>
			<v:textBlock v:margins="rect(4,4,4,4)" v:tabSpace="42.5197"/>
			<v:textRect cx="39.424" cy="508.61" width="126.15" height="20.3647" transform="rotate(-90)"/>
			<path d="M0 507.9 L84.3 507.9" class="st47"/>
			<rect v:rectContext="textBkgnd" x="-566.835" y="25.0242" width="116.449" height="28.7998" transform="rotate(-90)"
					class="st49"/>
			<text x="-566.83" y="46.62" transform="rotate(-90)" class="st50" v:langID="1033"><v:paragraph v:horizAlign="1"/><v:tabList/>Anonymous</text>		</g>
		<g id="shape1308-433" v:mID="1308" v:groupContext="shape" transform="translate(1008.09,175.923) rotate(90)">
			<title>Sheet.1308</title>
			<desc>Anonymous or with Login</desc>
			<v:textBlock v:margins="rect(4,4,4,4)" v:tabSpace="42.5197"/>
			<v:textRect cx="43.4148" cy="510.788" width="182.27" height="0" transform="rotate(-90)"/>
			<path d="M0 507.9 L84.3 507.9" class="st47"/>
			<rect v:rectContext="textBkgnd" x="-574.462" y="14.615" width="127.347" height="57.5997" transform="rotate(-90)"
					class="st49"/>
			<text x="-569.01" y="36.21" transform="rotate(-90)" class="st50" v:langID="1033"><v:paragraph v:horizAlign="1"/><v:tabList/>Anonymous<v:newlineChar/><tspan
						x="-574.46" dy="1.2em" class="st3">or with Login</tspan></text>		</g>
		<g id="shape1309-441" v:mID="1309" v:groupContext="shape" transform="translate(663.557,683.825) rotate(180)">
			<title>Sheet.1309</title>
			<path d="M0 507.9 L336.43 507.9" class="st51"/>
		</g>
	</g>
</svg>
