<?xml version="1.0" encoding="utf-8"?>
<!-- Generator: Adobe Illustrator 24.1.2, SVG Export Plug-In . SVG Version: 6.00 Build 0)  -->
<svg version="1.1" id="Layer_1" xmlns="http://www.w3.org/2000/svg" xmlns:xlink="http://www.w3.org/1999/xlink" x="0px" y="0px"
	 viewBox="0 0 100 100" style="enable-background:new 0 0 100 100;" xml:space="preserve">
<style type="text/css">
	.st0{fill:#4C87F0;}
	.st1{fill:none;}
	.st2{fill:#FFFFFF;}
	.st3{fill:#FFFFFF;stroke:#FFFFFF;stroke-width:0.1;stroke-miterlimit:10;}
</style>
<path class="st0" d="M100,0H33.3C14.9,0,0,14.9,0,33.3V100h66.7c18.4,0,33.3-14.9,33.3-33.3V0z"/>
<path class="st1" d="M100,0H33.3C14.9,0,0,14.9,0,33.3V100h66.7c18.4,0,33.3-14.9,33.3-33.3V0z"/>
<g>
	<path class="st2" d="M71.6,49.9l-7.8,9.3l7,8.3c0.3,0.3,0.2,0.6-0.3,0.6l-2.8,0c-0.5,0-1.1-0.3-1.4-0.6l-4.8-5.7l-4.8,5.7
		c-0.3,0.3-0.9,0.6-1.4,0.6l-2.8,0c-0.5,0-0.6-0.3-0.3-0.6l14.8-17.6c0.3-0.3,0.9-0.6,1.4-0.6l2.8,0C71.8,49.2,71.9,49.5,71.6,49.9z
		 M58.4,56.7l1.1-1.4c0.3-0.3,0.3-0.9,0-1.3L56,49.8c-0.3-0.3-0.9-0.6-1.4-0.6l-2.8,0c-0.5,0-0.6,0.3-0.3,0.6l5.8,6.9
		C57.7,57.1,58.2,57.1,58.4,56.7z M29,67.3v-1.7c0-0.5-0.4-0.8-0.8-0.8H13.8c-0.2,0-0.4-0.2-0.4-0.4v-1.8c0-1.2,1-2.2,2.2-2.2h8.2
		c3.1,0,5.6-2.5,5.6-5.6c0-3.1-2.5-5.6-5.6-5.6H11.9c-0.5,0-0.8,0.4-0.8,0.8v1.7c0,0.5,0.4,0.8,0.8,0.8h11.9c1.2,0,2.2,1,2.2,2.2
		c0,1.2-1,2.2-2.2,2.2h-8.2c-3.1,0-5.6,2.5-5.6,5.6v5.6h18.2C28.6,68.1,29,67.8,29,67.3z M45.3,57h-8.2c-1.2,0-2.2-1-2.2-2.2
		c0-1.2,1-2.2,2.2-2.2h11.5c0.5,0,0.8-0.4,0.8-0.8V50c0-0.5-0.4-0.8-0.8-0.8H37.1c-3.1,0-5.6,2.5-5.6,5.6c0,3.1,2.5,5.6,5.6,5.6h8.2
		c1.2,0,2.2,1,2.2,2.2c0,1.2-1,2.2-2.2,2.2H33.2v0c-0.5,0-0.8,0.4-0.8,0.8v1.7c0,0.5,0.4,0.8,0.8,0.8h12.1c3.1,0,5.6-2.5,5.6-5.6
		C50.9,59.5,48.4,57,45.3,57z M89.2,64.7H77.8c-1.2,0-2.2-1-2.2-2.2v-7.8c0-1.2,1-2.2,2.2-2.2h11.5c0.5,0,0.8-0.4,0.8-0.8V50
		c0-0.5-0.4-0.8-0.8-0.8H77.8c-3.1,0-5.6,2.5-5.6,5.6v7.8c0,3.1,2.5,5.6,5.6,5.6h11.4v0c0.5,0,0.8-0.4,0.8-0.8v-1.7
		C90,65.1,89.6,64.7,89.2,64.7z"/>
</g>
<rect id="_x3C_Slice_x3E__60_" class="st1" width="100" height="100"/>
<g>
	<path class="st2" d="M64.4,44.2c-0.1,0.2-0.2,0.3-0.3,0.3H64c-0.1,0-0.1-0.1-0.3-0.3L58,32.3c-0.1-0.2,0-0.4,0.2-0.4h1.2
		c0.3,0,0.4,0.1,0.5,0.4L65,43L64.4,44.2z M64.7,39.6l3.3-7.2c0.1-0.3,0.3-0.4,0.5-0.4h1.2c0.3,0,0.3,0.2,0.2,0.4l-4.3,9.2
		L64.7,39.6z"/>
	<path class="st2" d="M72.2,41.6c0.8,0,1.4,0.6,1.4,1.4s-0.6,1.4-1.4,1.4c-0.8,0-1.4-0.6-1.4-1.4S71.4,41.6,72.2,41.6z"/>
	<path class="st2" d="M78.5,27.7c0.3-0.1,0.5-0.3,0.8-0.3H80c0.3,0,0.4,0.1,0.4,0.4v16c0,0.3-0.1,0.4-0.4,0.4h-1.2
		c-0.3,0-0.4-0.1-0.4-0.4V29.7L75.3,31c-0.2,0-0.4,0-0.4-0.3V30c0-0.2,0-0.3,0.2-0.4L78.5,27.7z"/>
	<path class="st2" d="M87.3,27.7c0.3-0.1,0.5-0.3,0.8-0.3h0.7c0.3,0,0.4,0.1,0.4,0.4v16c0,0.3-0.1,0.4-0.4,0.4h-1.2
		c-0.3,0-0.4-0.1-0.4-0.4V29.7L84.1,31c-0.2,0-0.4,0-0.4-0.3V30c0-0.2,0-0.3,0.2-0.4L87.3,27.7z"/>
</g>
</svg>
