<?xml version="1.0" encoding="utf-8"?>
<!-- Generator: Adobe Illustrator 23.0.2, SVG Export Plug-In . SVG Version: 6.00 Build 0)  -->
<svg version="1.1" xmlns="http://www.w3.org/2000/svg" xmlns:xlink="http://www.w3.org/1999/xlink" x="0px" y="0px"
	 viewBox="0 0 122 119.2" style="enable-background:new 0 0 122 119.2;" xml:space="preserve">
<style type="text/css">
	.st0{fill:none;}
	.st1{fill:#00003E;}
	.st2{fill:#FFFFFF;}
	.st3{fill:url(#SVGID_1_);}
	.st4{fill:url(#SVGID_2_);}
	.st5{fill:url(#SVGID_3_);}
	.st6{fill:#0088F4;}
	.st7{opacity:0.75;fill:#E71D2E;}
	.st8{fill:#6A6765;}
	.st9{fill:#E71D2E;}
	.st10{opacity:0.5;fill:#3E80C2;}
	.st11{opacity:0.7;fill:#6A6765;}
	.st12{fill:none;stroke:#00003E;stroke-width:0.84;stroke-linecap:round;stroke-linejoin:round;stroke-miterlimit:10;}
	.st13{opacity:0.4;fill:#3E80C2;}
	.st14{fill:url(#SVGID_4_);}
	.st15{fill:url(#SVGID_5_);}
	.st16{fill:url(#SVGID_6_);}
	.st17{fill:url(#SVGID_7_);}
	.st18{fill:url(#SVGID_8_);}
	.st19{fill:url(#SVGID_9_);}
	.st20{fill:none;stroke:#00003E;stroke-width:1.2;stroke-linecap:round;stroke-linejoin:round;stroke-miterlimit:10;}
	.st21{fill:url(#SVGID_10_);}
	.st22{fill:url(#SVGID_11_);}
	.st23{fill:url(#SVGID_12_);}
</style>
<g id="Layer_1">
</g>
<g id="Layer_2">
</g>
<g id="Layer_3">
</g>
<g id="Layer_4">
	<g>
		<g>
			<path class="st1" d="M16.9,106.9v3.9c0,0.3-0.1,0.4-0.4,0.4h-1.4c-0.3,0-0.4-0.1-0.4-0.4v-9.9c0-0.3,0.1-0.4,0.4-0.4h3.8
				c1.8,0,3.9,0.7,3.9,3.2c0,2.5-2.1,3.2-3.9,3.2H16.9z M18.7,105.1c1.3,0,1.8-0.5,1.8-1.4c0-0.9-0.5-1.4-1.8-1.4h-1.9v2.8H18.7z"/>
			<path class="st1" d="M29.1,100.3c3,0,5.5,2.5,5.5,5.5c0,3-2.5,5.5-5.5,5.5s-5.5-2.5-5.5-5.5C23.6,102.8,26.1,100.3,29.1,100.3z
				 M29.1,109.5c2.1,0,3.3-1.8,3.3-3.7c0-1.8-1.2-3.7-3.3-3.7c-2,0-3.3,1.8-3.3,3.7C25.8,107.6,27.1,109.5,29.1,109.5z"/>
			<path class="st1" d="M43.1,109.3c0.3,0,0.4,0.1,0.4,0.4v1.1c0,0.3-0.1,0.4-0.4,0.4h-6.3c-0.3,0-0.4-0.1-0.4-0.4v-9.9
				c0-0.3,0.1-0.4,0.4-0.4h1.4c0.3,0,0.4,0.1,0.4,0.4v8.5H43.1z"/>
			<path class="st1" d="M42.8,100.8c-0.2-0.3-0.1-0.4,0.2-0.4h1.6c0.2,0,0.3,0.1,0.5,0.4l2.6,4.5l2.7-4.5c0.2-0.3,0.2-0.4,0.5-0.4
				h1.6c0.3,0,0.3,0.1,0.2,0.4l-3.9,6.4v3.6c0,0.3-0.1,0.4-0.4,0.4H47c-0.3,0-0.4-0.1-0.4-0.4v-3.6L42.8,100.8z"/>
			<path class="st1" d="M60.3,111c-0.1,0.2-0.2,0.4-0.4,0.4h-0.2c-0.1,0-0.2-0.1-0.4-0.4l-3.4-5.5l-0.6,5.3c0,0.3-0.1,0.4-0.4,0.4
				h-1.4c-0.3,0-0.4-0.1-0.4-0.4l1.3-10.4c0-0.1,0-0.1,0.1-0.1h0.1c0.1,0,0.1,0,0.2,0.1l4.9,7.7l4.9-7.7c0.1-0.1,0.1-0.1,0.2-0.1
				h0.1c0.1,0,0.1,0,0.1,0.1l1.3,10.4c0,0.3-0.1,0.4-0.4,0.4h-1.4c-0.3,0-0.3-0.1-0.4-0.4l-0.6-5.3L60.3,111z"/>
			<path class="st1" d="M73.4,100.3c3,0,5.5,2.5,5.5,5.5c0,3-2.5,5.5-5.5,5.5c-3,0-5.5-2.5-5.5-5.5C68,102.8,70.4,100.3,73.4,100.3z
				 M73.4,109.5c2.1,0,3.3-1.8,3.3-3.7c0-1.8-1.2-3.7-3.3-3.7c-2,0-3.3,1.8-3.3,3.7C70.2,107.6,71.4,109.5,73.4,109.5z"/>
			<path class="st1" d="M86.8,106.7l2.7,4c0.2,0.3,0,0.5-0.3,0.5h-1.3c-0.3,0-0.5-0.1-0.6-0.4l-2.6-3.9h-1.3v3.9
				c0,0.3-0.1,0.4-0.4,0.4h-1.4c-0.3,0-0.4-0.1-0.4-0.4v-9.9c0-0.3,0.1-0.4,0.4-0.4h3.8c1.7,0,3.8,0.7,3.8,3.2
				C89.1,105.4,88,106.3,86.8,106.7z M85.1,105.1c1.3,0,1.8-0.5,1.8-1.4c0-1-0.6-1.4-1.8-1.4h-1.9v2.8H85.1z"/>
			<path class="st1" d="M94,106.9v3.9c0,0.3-0.1,0.4-0.4,0.4h-1.4c-0.3,0-0.4-0.1-0.4-0.4v-9.9c0-0.3,0.1-0.4,0.4-0.4h3.8
				c1.8,0,3.9,0.7,3.9,3.2c0,2.5-2.1,3.2-3.9,3.2H94z M95.9,105.1c1.3,0,1.8-0.5,1.8-1.4c0-0.9-0.5-1.4-1.8-1.4H94v2.8H95.9z"/>
			<path class="st1" d="M108.2,100.8c0-0.3,0.1-0.4,0.4-0.4h1.4c0.3,0,0.4,0.1,0.4,0.4v9.9c0,0.3-0.1,0.4-0.4,0.4h-1.4
				c-0.3,0-0.4-0.1-0.4-0.4v-4h-4.7v4c0,0.3-0.1,0.4-0.4,0.4h-1.4c-0.3,0-0.4-0.1-0.4-0.4v-9.9c0-0.3,0.1-0.4,0.4-0.4h1.4
				c0.3,0,0.4,0.1,0.4,0.4v4.1h4.7V100.8z"/>
		</g>
	</g>
	<rect id="_x3C_Slice_x3E__3_" y="-0.1" class="st0" width="122" height="118"/>
</g>
<g id="Layer_5">
	<g>
		<g>
			<path class="st2" d="M88,19.3c-1.9-3.2-6.5-5.9-10.2-5.9H47.2c-3.7,0-8.3,2.7-10.2,5.9L21.7,45.8c-1.9,3.2-1.9,8.6,0,11.8
				L37,84.1c1.9,3.2,6.5,5.9,10.2,5.9h30.6c3.7,0,8.3-2.7,10.2-5.9l15.3-26.5c1.9-3.2,1.9-8.6,0-11.8L88,19.3z"/>
		</g>
		<linearGradient id="SVGID_1_" gradientUnits="userSpaceOnUse" x1="59.451" y1="80.1331" x2="37.6249" y2="54.6693">
			<stop  offset="0.6322" style="stop-color:#95D5F1"/>
			<stop  offset="1" style="stop-color:#2AACE2"/>
		</linearGradient>
		<polygon class="st3" points="40.4,51.7 40.4,90 62.5,51.7 		"/>
		<linearGradient id="SVGID_2_" gradientUnits="userSpaceOnUse" x1="39.2149" y1="35.0222" x2="72.0795" y2="28.374">
			<stop  offset="0.6297" style="stop-color:#95D5F1"/>
			<stop  offset="1" style="stop-color:#2AACE2"/>
		</linearGradient>
		<polygon class="st4" points="73.6,32.5 40.4,13.4 62.5,51.7 		"/>
		<linearGradient id="SVGID_3_" gradientUnits="userSpaceOnUse" x1="88.5399" y1="40.269" x2="78.0032" y2="71.1266">
			<stop  offset="0.6297" style="stop-color:#95D5F1"/>
			<stop  offset="1" style="stop-color:#2AACE2"/>
		</linearGradient>
		<polygon class="st5" points="73.6,70.8 106.7,51.7 62.5,51.7 		"/>
		<polygon class="st6" points="62.5,51.7 106.7,51.7 84.6,13.4 		"/>
		<polygon class="st7" points="40.4,90 84.6,90 62.5,51.7 		"/>
		<polygon class="st8" points="62.5,51.7 40.4,13.4 18.3,51.7 		"/>
		<polygon class="st9" points="84.6,90 51.5,70.8 62.5,51.7 		"/>
		<polygon class="st10" points="84.6,13.4 84.6,51.7 62.5,51.7 		"/>
		<polygon class="st11" points="18.3,51.7 51.5,32.5 62.5,51.7 		"/>
		<polyline class="st20" points="84.6,13.4 84.6,90 40.4,13.4 40.4,90 84.6,13.4 		"/>
		<polyline class="st20" points="84.6,90 18.3,51.7 106.7,51.7 40.4,13.4 		"/>
		<line class="st20" x1="106.7" y1="51.7" x2="40.4" y2="90"/>
		<line class="st20" x1="84.6" y1="13.4" x2="18.3" y2="51.7"/>
		<polygon class="st13" points="84.6,13.4 84.6,51.7 62.5,51.7 		"/>
		<g>
			<path class="st1" d="M77.8,13.4c3.7,0,8.3,2.7,10.2,5.9l15.3,26.5c1.9,3.2,1.9,8.6,0,11.8L88,84.1c-1.9,3.2-6.5,5.9-10.2,5.9
				H47.2c-3.7,0-8.3-2.7-10.2-5.9L21.7,57.6c-1.9-3.2-1.9-8.6,0-11.8L37,19.3c1.9-3.2,6.5-5.9,10.2-5.9H77.8 M77.8,9.9H47.2
				c-5,0-10.7,3.3-13.3,7.7L18.7,44c-2.5,4.4-2.5,10.9,0,15.3L34,85.8c2.5,4.4,8.2,7.7,13.3,7.7h30.6c5,0,10.7-3.3,13.3-7.7
				l15.3-26.5c2.5-4.4,2.5-10.9,0-15.3L91.1,17.5C88.5,13.2,82.8,9.9,77.8,9.9L77.8,9.9z"/>
		</g>
	</g>
</g>
</svg>
