<?xml version="1.0" encoding="utf-8"?>
<!-- Generator: Adobe Illustrator 23.0.2, SVG Export Plug-In . SVG Version: 6.00 Build 0)  -->
<svg version="1.1" xmlns="http://www.w3.org/2000/svg" xmlns:xlink="http://www.w3.org/1999/xlink" x="0px" y="0px"
	 viewBox="0 0 317 90.7" style="enable-background:new 0 0 317 90.7;" xml:space="preserve">
<style type="text/css">
	.st0{fill:none;}
	.st1{fill:#00003E;}
	.st2{fill:#FFFFFF;}
	.st3{fill:url(#SVGID_1_);}
	.st4{fill:url(#SVGID_2_);}
	.st5{fill:url(#SVGID_3_);}
	.st6{fill:#0088F4;}
	.st7{opacity:0.75;fill:#E71D2E;}
	.st8{fill:#6A6765;}
	.st9{fill:#E71D2E;}
	.st10{opacity:0.5;fill:#3E80C2;}
	.st11{opacity:0.7;fill:#6A6765;}
	.st12{fill:none;stroke:#00003E;stroke-width:0.84;stroke-linecap:round;stroke-linejoin:round;stroke-miterlimit:10;}
	.st13{opacity:0.4;fill:#3E80C2;}
	.st14{fill:url(#SVGID_4_);}
	.st15{fill:url(#SVGID_5_);}
	.st16{fill:url(#SVGID_6_);}
	.st17{fill:url(#SVGID_7_);}
	.st18{fill:url(#SVGID_8_);}
	.st19{fill:url(#SVGID_9_);}
	.st20{fill:none;stroke:#00003E;stroke-width:1.2;stroke-linecap:round;stroke-linejoin:round;stroke-miterlimit:10;}
	.st21{fill:url(#SVGID_10_);}
	.st22{fill:url(#SVGID_11_);}
	.st23{fill:url(#SVGID_12_);}
</style>
<g id="Layer_1">
</g>
<g id="Layer_2">
	<rect id="_x3C_Slice_x3E__2_" x="0.1" y="-0.4" class="st0" width="316.7" height="90.1"/>
</g>
<g id="Layer_3">
</g>
<g id="Layer_4">
	<g>
		<g>
			<path class="st1" d="M110.3,46.9v7.3c0,0.5-0.1,0.7-0.7,0.7h-2.7c-0.5,0-0.7-0.1-0.7-0.7V35.4c0-0.5,0.2-0.7,0.7-0.7h7.1
				c3.3,0,7.3,1.4,7.3,6.1c0,4.7-4,6.1-7.3,6.1H110.3z M113.8,43.4c2.5,0,3.5-1,3.5-2.7c0-1.6-1-2.7-3.5-2.7h-3.6v5.3H113.8z"/>
			<path class="st1" d="M133.4,34.3c5.7,0,10.4,4.7,10.4,10.5c0,5.7-4.7,10.5-10.4,10.5c-5.7,0-10.4-4.7-10.4-10.5
				C123,39.1,127.7,34.3,133.4,34.3z M133.4,51.7c3.9,0,6.2-3.5,6.2-6.9c0-3.5-2.3-6.9-6.2-6.9c-3.8,0-6.2,3.4-6.2,6.9
				C127.2,48.2,129.6,51.7,133.4,51.7z"/>
			<path class="st1" d="M159.9,51.4c0.5,0,0.7,0.2,0.7,0.7v2.1c0,0.5-0.1,0.7-0.7,0.7H148c-0.5,0-0.7-0.1-0.7-0.7V35.4
				c0-0.5,0.1-0.7,0.7-0.7h2.7c0.5,0,0.7,0.1,0.7,0.7v16H159.9z"/>
			<path class="st1" d="M159.3,35.4c-0.3-0.5-0.1-0.7,0.3-0.7h3.1c0.5,0,0.6,0.2,0.9,0.7l4.9,8.5l5-8.5c0.3-0.5,0.4-0.7,0.9-0.7h3.1
				c0.5,0,0.6,0.2,0.3,0.7l-7.3,12v6.8c0,0.5-0.1,0.7-0.7,0.7h-2.6c-0.5,0-0.7-0.1-0.7-0.7v-6.8L159.3,35.4z"/>
			<path class="st1" d="M192.5,54.6c-0.3,0.4-0.5,0.7-0.7,0.7h-0.3c-0.3,0-0.4-0.3-0.7-0.7l-6.4-10.4l-1.2,10
				c-0.1,0.5-0.1,0.7-0.7,0.7h-2.7c-0.5,0-0.8-0.2-0.7-0.7l2.5-19.6c0-0.2,0.1-0.3,0.3-0.3h0.2c0.1,0,0.2,0.1,0.3,0.3l9.4,14.6
				l9.4-14.6c0.1-0.2,0.2-0.3,0.3-0.3h0.2c0.2,0,0.2,0.1,0.3,0.3l2.5,19.6c0.1,0.5-0.1,0.7-0.7,0.7h-2.7c-0.5,0-0.6-0.1-0.7-0.7
				L199,44.1L192.5,54.6z"/>
			<path class="st1" d="M217.3,34.3c5.7,0,10.4,4.7,10.4,10.5c0,5.7-4.7,10.5-10.4,10.5S207,50.5,207,44.8
				C207,39.1,211.7,34.3,217.3,34.3z M217.3,51.7c3.9,0,6.2-3.5,6.2-6.9c0-3.5-2.3-6.9-6.2-6.9c-3.8,0-6.2,3.4-6.2,6.9
				C211.1,48.2,213.5,51.7,217.3,51.7z"/>
			<path class="st1" d="M242.6,46.5l5,7.5c0.4,0.6-0.1,0.9-0.6,0.9h-2.5c-0.5,0-0.9-0.2-1.2-0.7l-4.9-7.3h-2.5v7.3
				c0,0.5-0.2,0.7-0.7,0.7h-2.7c-0.5,0-0.7-0.1-0.7-0.7V35.4c0-0.5,0.2-0.7,0.7-0.7h7.1c3.3,0,7.3,1.4,7.3,6.1
				C246.9,44,245,45.8,242.6,46.5z M239.5,43.4c2.4,0,3.4-0.9,3.4-2.7c0-1.8-1.2-2.7-3.4-2.7h-3.6v5.3H239.5z"/>
			<path class="st1" d="M256.2,46.9v7.3c0,0.5-0.1,0.7-0.7,0.7h-2.7c-0.5,0-0.7-0.1-0.7-0.7V35.4c0-0.5,0.2-0.7,0.7-0.7h7.1
				c3.3,0,7.3,1.4,7.3,6.1c0,4.7-4,6.1-7.3,6.1H256.2z M259.7,43.4c2.5,0,3.5-1,3.5-2.7c0-1.6-1-2.7-3.5-2.7h-3.6v5.3H259.7z"/>
			<path class="st1" d="M283.1,35.4c0-0.5,0.1-0.7,0.7-0.7h2.7c0.5,0,0.7,0.1,0.7,0.7v18.8c0,0.5-0.1,0.7-0.7,0.7h-2.7
				c-0.5,0-0.7-0.1-0.7-0.7v-7.6h-8.9v7.6c0,0.5-0.1,0.7-0.7,0.7h-2.7c-0.5,0-0.7-0.1-0.7-0.7V35.4c0-0.5,0.1-0.7,0.7-0.7h2.7
				c0.5,0,0.7,0.1,0.7,0.7v7.7h8.9V35.4z"/>
		</g>
	</g>
</g>
<g id="Layer_5">
	<g>
		<g>
			<path class="st2" d="M75.7,22.6c-1.3-2.3-4.5-4.1-7.2-4.1H47.2c-2.6,0-5.8,1.9-7.2,4.1L29.3,41.2c-1.3,2.3-1.3,6,0,8.3L40,68
				c1.3,2.3,4.5,4.1,7.2,4.1h21.4c2.6,0,5.8-1.9,7.2-4.1l10.7-18.5c1.3-2.3,1.3-6,0-8.3L75.7,22.6z"/>
		</g>
		<linearGradient id="SVGID_1_" gradientUnits="userSpaceOnUse" x1="55.7231" y1="65.2318" x2="40.4448" y2="47.4071">
			<stop  offset="0.6322" style="stop-color:#95D5F1"/>
			<stop  offset="1" style="stop-color:#2AACE2"/>
		</linearGradient>
		<polygon class="st3" points="42.4,45.3 42.4,72.1 57.9,45.3 		"/>
		<linearGradient id="SVGID_2_" gradientUnits="userSpaceOnUse" x1="41.5578" y1="33.6542" x2="64.563" y2="29.0004">
			<stop  offset="0.6297" style="stop-color:#95D5F1"/>
			<stop  offset="1" style="stop-color:#2AACE2"/>
		</linearGradient>
		<polygon class="st4" points="65.6,31.9 42.4,18.5 57.9,45.3 		"/>
		<linearGradient id="SVGID_3_" gradientUnits="userSpaceOnUse" x1="76.0853" y1="37.3269" x2="68.7096" y2="58.9272">
			<stop  offset="0.6297" style="stop-color:#95D5F1"/>
			<stop  offset="1" style="stop-color:#2AACE2"/>
		</linearGradient>
		<polygon class="st5" points="65.6,58.7 88.8,45.3 57.9,45.3 		"/>
		<polygon class="st6" points="57.9,45.3 88.8,45.3 73.4,18.5 		"/>
		<polygon class="st7" points="42.4,72.1 73.4,72.1 57.9,45.3 		"/>
		<polygon class="st8" points="57.9,45.3 42.4,18.5 26.9,45.3 		"/>
		<polygon class="st9" points="73.4,72.1 50.1,58.7 57.9,45.3 		"/>
		<polygon class="st10" points="73.4,18.5 73.4,45.3 57.9,45.3 		"/>
		<polygon class="st11" points="26.9,45.3 50.1,31.9 57.9,45.3 		"/>
		<polyline class="st12" points="73.4,18.5 73.4,72.1 42.4,18.5 42.4,72.1 73.4,18.5 		"/>
		<polyline class="st12" points="73.4,72.1 26.9,45.3 88.8,45.3 42.4,18.5 		"/>
		<line class="st12" x1="88.8" y1="45.3" x2="42.4" y2="72.1"/>
		<line class="st12" x1="73.4" y1="18.5" x2="26.9" y2="45.3"/>
		<polygon class="st13" points="73.4,18.5 73.4,45.3 57.9,45.3 		"/>
		<g>
			<path class="st1" d="M68.6,18.5c2.6,0,5.8,1.9,7.2,4.1l10.7,18.5c1.3,2.3,1.3,6,0,8.3L75.7,68c-1.3,2.3-4.5,4.1-7.2,4.1H47.2
				c-2.6,0-5.8-1.9-7.2-4.1L29.3,49.5c-1.3-2.3-1.3-6,0-8.3L40,22.6c1.3-2.3,4.5-4.1,7.2-4.1H68.6 M68.6,16.1H47.2
				c-3.5,0-7.5,2.3-9.3,5.4L27.2,40c-1.8,3.1-1.8,7.7,0,10.7l10.7,18.5c1.8,3.1,5.8,5.4,9.3,5.4h21.4c3.5,0,7.5-2.3,9.3-5.4
				l10.7-18.5c1.8-3.1,1.8-7.7,0-10.7L77.9,21.4C76.1,18.4,72.1,16.1,68.6,16.1L68.6,16.1z"/>
		</g>
	</g>
</g>
</svg>
