<?xml version="1.0" encoding="utf-8"?>
<!-- Generator: Adobe Illustrator 23.0.2, SVG Export Plug-In . SVG Version: 6.00 Build 0)  -->
<svg version="1.1" xmlns="http://www.w3.org/2000/svg" xmlns:xlink="http://www.w3.org/1999/xlink" x="0px" y="0px"
	 viewBox="0 0 391.7 189" style="enable-background:new 0 0 391.7 189;" xml:space="preserve">
<style type="text/css">
	.st0{fill:none;}
	.st1{fill:#00003E;}
	.st2{fill:#FFFFFF;}
	.st3{fill:url(#SVGID_1_);}
	.st4{fill:url(#SVGID_2_);}
	.st5{fill:url(#SVGID_3_);}
	.st6{fill:#0088F4;}
	.st7{opacity:0.75;fill:#E71D2E;}
	.st8{fill:#6A6765;}
	.st9{fill:#E71D2E;}
	.st10{opacity:0.5;fill:#3E80C2;}
	.st11{opacity:0.7;fill:#6A6765;}
	.st12{fill:none;stroke:#00003E;stroke-width:0.84;stroke-linecap:round;stroke-linejoin:round;stroke-miterlimit:10;}
	.st13{opacity:0.4;fill:#3E80C2;}
	.st14{fill:url(#SVGID_4_);}
	.st15{fill:url(#SVGID_5_);}
	.st16{fill:url(#SVGID_6_);}
	.st17{fill:url(#SVGID_7_);}
	.st18{fill:url(#SVGID_8_);}
	.st19{fill:url(#SVGID_9_);}
	.st20{fill:none;stroke:#00003E;stroke-width:1.2;stroke-linecap:round;stroke-linejoin:round;stroke-miterlimit:10;}
	.st21{fill:url(#SVGID_10_);}
	.st22{fill:url(#SVGID_11_);}
	.st23{fill:url(#SVGID_12_);}
</style>
<g id="Layer_1">
</g>
<g id="Layer_2">
	<rect id="_x3C_Slice_x3E__1_" x="0.6" y="0.4" class="st0" width="391.1" height="188.1"/>
</g>
<g id="Layer_3">
</g>
<g id="Layer_4">
	<g>
		<g>
			<path class="st1" d="M30.9,150v14c0,1-0.3,1.3-1.3,1.3h-5.2c-1,0-1.3-0.3-1.3-1.3v-35.9c0-1,0.3-1.3,1.3-1.3h13.5
				c6.4,0,13.9,2.6,13.9,11.5c0,8.9-7.5,11.7-13.9,11.7H30.9z M37.6,143.5c4.8,0,6.6-1.9,6.6-5.1c0-3.1-1.8-5.1-6.6-5.1h-6.8v10.2
				H37.6z"/>
			<path class="st1" d="M74.9,126.1c10.8,0,19.8,9,19.8,20c0,10.9-9,20-19.8,20s-19.7-9-19.7-20C55.2,135.1,64.1,126.1,74.9,126.1z
				 M74.9,159.3c7.5,0,11.9-6.7,11.9-13.2c0-6.7-4.4-13.2-11.9-13.2c-7.3,0-11.8,6.5-11.8,13.2C63.1,152.6,67.7,159.3,74.9,159.3z"
				/>
			<path class="st1" d="M125.4,158.6c1,0,1.3,0.3,1.3,1.3v4c0,1-0.3,1.3-1.3,1.3h-22.6c-1,0-1.3-0.3-1.3-1.3v-35.9
				c0-1,0.3-1.3,1.3-1.3h5.2c1,0,1.3,0.3,1.3,1.3v30.5H125.4z"/>
			<path class="st1" d="M124.3,128.1c-0.5-1-0.3-1.3,0.7-1.3h5.9c0.9,0,1.2,0.3,1.8,1.3l9.3,16.2l9.6-16.2c0.5-1,0.8-1.3,1.7-1.3
				h5.8c0.9,0,1.2,0.3,0.6,1.3l-13.9,22.9V164c0,1-0.3,1.3-1.3,1.3h-4.9c-1,0-1.4-0.3-1.4-1.3v-12.9L124.3,128.1z"/>
			<path class="st1" d="M187.5,164.7c-0.5,0.8-0.9,1.3-1.4,1.3h-0.6c-0.5,0-0.8-0.5-1.4-1.3l-12.3-19.8l-2.3,19.1
				c-0.1,1-0.3,1.3-1.3,1.3h-5.2c-1,0-1.4-0.3-1.3-1.3l4.7-37.4c0.1-0.4,0.1-0.5,0.5-0.5h0.4c0.2,0,0.4,0.1,0.7,0.5l17.8,27.9
				l17.8-27.9c0.3-0.4,0.4-0.5,0.7-0.5h0.4c0.4,0,0.4,0.1,0.5,0.5l4.7,37.4c0.1,1-0.3,1.3-1.3,1.3h-5.2c-1,0-1.2-0.3-1.3-1.3
				l-2.1-19.2L187.5,164.7z"/>
			<path class="st1" d="M234.9,126.1c10.8,0,19.8,9,19.8,20c0,10.9-9,20-19.8,20s-19.7-9-19.7-20C215.1,135.1,224,126.1,234.9,126.1
				z M234.9,159.3c7.5,0,11.9-6.7,11.9-13.2c0-6.7-4.4-13.2-11.9-13.2c-7.3,0-11.8,6.5-11.8,13.2
				C223.1,152.6,227.6,159.3,234.9,159.3z"/>
			<path class="st1" d="M283,149.2l9.6,14.4c0.7,1.2-0.1,1.7-1.2,1.7h-4.8c-1,0-1.6-0.4-2.3-1.3l-9.3-14h-4.8v14
				c0,1-0.3,1.3-1.3,1.3h-5.2c-1,0-1.3-0.3-1.3-1.3v-35.9c0-1,0.3-1.3,1.3-1.3h13.6c6.3,0,13.9,2.6,13.9,11.5
				C291.2,144.6,287.5,147.9,283,149.2z M277.1,143.5c4.5,0,6.5-1.7,6.5-5.1c0-3.5-2.3-5.1-6.5-5.1h-6.8v10.2H277.1z"/>
			<path class="st1" d="M308.9,150v14c0,1-0.3,1.3-1.3,1.3h-5.2c-1,0-1.3-0.3-1.3-1.3v-35.9c0-1,0.3-1.3,1.3-1.3h13.5
				c6.4,0,13.9,2.6,13.9,11.5c0,8.9-7.5,11.7-13.9,11.7H308.9z M315.7,143.5c4.8,0,6.6-1.9,6.6-5.1c0-3.1-1.8-5.1-6.6-5.1h-6.8v10.2
				H315.7z"/>
			<path class="st1" d="M360.2,128.1c0-1,0.3-1.3,1.3-1.3h5.2c1,0,1.3,0.3,1.3,1.3V164c0,1-0.3,1.3-1.3,1.3h-5.2
				c-1,0-1.3-0.3-1.3-1.3v-14.4h-17V164c0,1-0.3,1.3-1.3,1.3h-5.2c-1,0-1.3-0.3-1.3-1.3v-35.9c0-1,0.3-1.3,1.3-1.3h5.2
				c1,0,1.3,0.3,1.3,1.3v14.7h17V128.1z"/>
		</g>
	</g>
</g>
<g id="Layer_5">
	<g>
		<g>
			<path class="st2" d="M221,32.2c-1.9-3.2-6.5-5.9-10.2-5.9h-30.6c-3.7,0-8.3,2.7-10.2,5.9l-15.3,26.5c-1.9,3.2-1.9,8.6,0,11.8
				L170,97c1.9,3.2,6.5,5.9,10.2,5.9h30.6c3.7,0,8.3-2.7,10.2-5.9l15.3-26.5c1.9-3.2,1.9-8.6,0-11.8L221,32.2z"/>
		</g>
		<linearGradient id="SVGID_1_" gradientUnits="userSpaceOnUse" x1="192.449" y1="93.0214" x2="170.6229" y2="67.5577">
			<stop  offset="0.6322" style="stop-color:#95D5F1"/>
			<stop  offset="1" style="stop-color:#2AACE2"/>
		</linearGradient>
		<polygon class="st3" points="173.4,64.6 173.4,102.9 195.5,64.6 		"/>
		<linearGradient id="SVGID_2_" gradientUnits="userSpaceOnUse" x1="172.2129" y1="47.9106" x2="205.0775" y2="41.2624">
			<stop  offset="0.6297" style="stop-color:#95D5F1"/>
			<stop  offset="1" style="stop-color:#2AACE2"/>
		</linearGradient>
		<polygon class="st4" points="206.6,45.4 173.4,26.3 195.5,64.6 		"/>
		<linearGradient id="SVGID_3_" gradientUnits="userSpaceOnUse" x1="221.5379" y1="53.1573" x2="211.0012" y2="84.0149">
			<stop  offset="0.6297" style="stop-color:#95D5F1"/>
			<stop  offset="1" style="stop-color:#2AACE2"/>
		</linearGradient>
		<polygon class="st5" points="206.6,83.7 239.7,64.6 195.5,64.6 		"/>
		<polygon class="st6" points="195.5,64.6 239.7,64.6 217.6,26.3 		"/>
		<polygon class="st7" points="173.4,102.9 217.6,102.9 195.5,64.6 		"/>
		<polygon class="st8" points="195.5,64.6 173.4,26.3 151.3,64.6 		"/>
		<polygon class="st9" points="217.6,102.9 184.5,83.7 195.5,64.6 		"/>
		<polygon class="st10" points="217.6,26.3 217.6,64.6 195.5,64.6 		"/>
		<polygon class="st11" points="151.3,64.6 184.5,45.4 195.5,64.6 		"/>
		<polyline class="st20" points="217.6,26.3 217.6,102.9 173.4,26.3 173.4,102.9 217.6,26.3 		"/>
		<polyline class="st20" points="217.6,102.9 151.3,64.6 239.7,64.6 173.4,26.3 		"/>
		<line class="st20" x1="239.7" y1="64.6" x2="173.4" y2="102.9"/>
		<line class="st20" x1="217.6" y1="26.3" x2="151.3" y2="64.6"/>
		<polygon class="st13" points="217.6,26.3 217.6,64.6 195.5,64.6 		"/>
		<g>
			<path class="st1" d="M210.8,26.3c3.7,0,8.3,2.7,10.2,5.9l15.3,26.5c1.9,3.2,1.9,8.6,0,11.8L221,97c-1.9,3.2-6.5,5.9-10.2,5.9
				h-30.6c-3.7,0-8.3-2.7-10.2-5.9l-15.3-26.5c-1.9-3.2-1.9-8.6,0-11.8L170,32.2c1.9-3.2,6.5-5.9,10.2-5.9H210.8 M210.8,22.8h-30.6
				c-5,0-10.7,3.3-13.3,7.7l-15.3,26.5c-2.5,4.4-2.5,10.9,0,15.3L167,98.7c2.5,4.4,8.2,7.7,13.3,7.7h30.6c5,0,10.7-3.3,13.3-7.7
				l15.3-26.5c2.5-4.4,2.5-10.9,0-15.3l-15.3-26.5C221.5,26.1,215.8,22.8,210.8,22.8L210.8,22.8z"/>
		</g>
	</g>
</g>
</svg>
