<svg id="Layer_1" data-name="Layer 1" xmlns="http://www.w3.org/2000/svg" viewBox="0 0 100 100"><defs><style>.cls-1{fill:#4c87f0;}.cls-2{fill:none;}.cls-3{fill:#fff;}</style></defs><title>2sxc</title><path class="cls-1" d="M33.33,0H100a0,0,0,0,1,0,0V66.67A33.33,33.33,0,0,1,66.67,100H0a0,0,0,0,1,0,0V33.33A33.33,33.33,0,0,1,33.33,0Z"/><path class="cls-2" d="M33.33,0H100a0,0,0,0,1,0,0V66.67A33.33,33.33,0,0,1,66.67,100H0a0,0,0,0,1,0,0V33.33A33.33,33.33,0,0,1,33.33,0Z"/><path class="cls-3" d="M71.63,49.85l-7.8,9.31,7,8.33c.3.35.16.63-.29.63H67.74a2,2,0,0,1-1.36-.64l-4.76-5.67-4.75,5.67a2,2,0,0,1-1.36.64H52.74c-.46,0-.59-.28-.3-.63L67.22,49.84a2,2,0,0,1,1.36-.63h2.76C71.79,49.21,71.93,49.5,71.63,49.85ZM58.45,56.74l1.14-1.37a1,1,0,0,0,0-1.27L56,49.84a2,2,0,0,0-1.36-.63H51.91c-.46,0-.59.29-.3.64l5.77,6.89A.68.68,0,0,0,58.45,56.74ZM29,67.29V65.57a.83.83,0,0,0-.83-.83H13.76a.41.41,0,0,1-.41-.41V62.55a2.19,2.19,0,0,1,2.19-2.19h8.21a5.57,5.57,0,0,0,0-11.14H11.88a.83.83,0,0,0-.83.83v1.72a.83.83,0,0,0,.83.82H23.75a2.2,2.2,0,0,1,0,4.39H15.54A5.58,5.58,0,0,0,10,62.55v5.57H28.14A.83.83,0,0,0,29,67.29ZM45.31,57H37.1a2.2,2.2,0,0,1,0-4.39H48.56a.83.83,0,0,0,.83-.82V50.05a.83.83,0,0,0-.83-.83H37.1a5.57,5.57,0,0,0,0,11.14h8.21a2.19,2.19,0,0,1,0,4.38H33.2a.83.83,0,0,0-.83.83v1.72a.83.83,0,0,0,.83.83H45.31a5.57,5.57,0,0,0,0-11.14Zm43.88,7.76H77.8a2.19,2.19,0,0,1-2.19-2.19V54.79a2.2,2.2,0,0,1,2.19-2.2H89.25a.83.83,0,0,0,.83-.82V50.05a.83.83,0,0,0-.83-.83H77.8a5.58,5.58,0,0,0-5.58,5.57v7.76a5.58,5.58,0,0,0,5.58,5.57H89.19a.83.83,0,0,0,.83-.83V65.57A.83.83,0,0,0,89.19,64.74Z"/><path class="cls-3" d="M64.59,31.43,59.53,42.35c-.6,1.27-1.2,1.51-1.9,1.51s-1.27-.24-1.42-1.51L55,31.43v-.09c0-.29.14-.51.43-.51h.24c.17,0,.34.1.36.43l1.15,10.83c.08.72.32.86.58.86s.48-.14.82-.86l5-10.83c.14-.33.33-.43.5-.43h.34a.25.25,0,0,1,.29.27A1,1,0,0,1,64.59,31.43Z"/><path class="cls-3" d="M68.74,42.73l2.79-15.81-4.23.53h-.12c-.29,0-.33-.17-.31-.31l0-.12c.08-.36.29-.44.58-.48l4.75-.65h.12c.29,0,.39.19.34.48L69.8,42.73h4.1c.24,0,.46.1.41.36l0,.27c-.05.26-.26.36-.53.36H64.47c-.26,0-.48-.1-.43-.36l0-.27a.5.5,0,0,1,.55-.36Z"/><path class="cls-3" d="M90.05,32.44l-.84,4.73c-.81,4.58-3,6.69-6.69,6.69-2.71,0-4.54-1.53-4.54-4.77a11.42,11.42,0,0,1,.19-1.92L79,32.44c.87-4.82,3.34-6.67,6.7-6.67,2.83,0,4.53,1.58,4.53,4.73A11.55,11.55,0,0,1,90.05,32.44Zm-4.51-5.71c-2.88,0-4.82,2.11-5.47,5.71l-.84,4.73A11.17,11.17,0,0,0,79,39c0,2.59,1.29,3.86,3.65,3.86,2.76,0,4.79-1.94,5.47-5.73L89,32.44a12.06,12.06,0,0,0,.19-1.94C89.19,27.88,87.89,26.73,85.54,26.73Z"/></svg>